DBRep_DrawableShape

CASCADE Topology V1, (c) Matra-Datavision
Locations 36
1
              1               0               0               0 
              0               1               0               0 
              0               0               1               0 
1
              1               0               0               0 
              0               1               0               0 
              0               0               1               0 
1
              1               0               0               0 
              0               1               0               0 
              0               0               1               0 
1
              1               0               0               0 
              0               1               0               0 
              0               0               1               0 
2  2 1 3 -1 4 1 0
2  1 -1 4 -1 3 1 2 -1 0
1
              1               0               0               5 
              0               1               0               5 
              0               0               1              20 
1
              1               0               0           104.5 
              0               1               0               0 
              0               0               1               0 
1
              1               0               0               0 
              0               1               0               0 
              0               0               1               0 
2  7 1 8 1 9 1 0
2  2 1 3 -1 4 1 9 -1 8 -1 7 -1 0
2  1 -1 9 -1 8 -1 7 -1 0
1
              1               0               0              -0 
              0               1               0               0 
              0               0               1              26 
2  13 1 3 -1 4 1 0
2  2 1 13 -1 0
2  3 1 13 -1 0
2  1 -1 4 -1 3 1 13 -1 0
2  7 1 9 1 0
2  2 1 3 -1 4 1 9 -1 7 -1 0
2  1 -1 9 -1 7 -1 0
1
              1               0               0               0 
              0               1               0              54 
              0               0               1               0 
2  7 1 21 1 9 1 0
2  2 1 3 -1 4 1 9 -1 21 -1 7 -1 0
2  1 -1 9 -1 21 -1 7 -1 0
1
              1               0               0           104.5 
              0               1               0              54 
              0               0               1               0 
2  7 1 25 1 9 1 0
2  2 1 3 -1 4 1 9 -1 25 -1 7 -1 0
2  1 -1 9 -1 25 -1 7 -1 0
2  1 -1 4 -1 0
2  13 1 3 -1 0
1
              1               0               0              -0 
              0               1               0              -0 
              0               0               1           -24.5 
2  13 1 3 -1 31 1 0
2  31 -1 3 1 13 -1 0
2  13 -1 0
2  1 -1 4 -1 31 -1 3 1 13 -1 0
2  3 -1 31 1 4 1 0
Curve2ds 120
1 0 0 1 0 
1 0 0 1 0 
1 26 0 0 -1 
1 0 0 0 1 
1 0 -64 1 0 
1 0 0 1 0 
1 0 0 0 -1 
1 0 0 0 1 
1 0 0 0 1 
1 0 0 1 0 
1 0 114.5 1 0 
1 0 0 1 0 
1 26 0 0 1 
1 0 0 1 0 
1 0 64 1 0 
1 26 0 0 1 
1 114.5 0 0 1 
1 26 0 0 -1 
2 109.5 5 1 0 -0 1 1.75
1 0 6 1 0 
1 106.5 56 1 0 
1 0 0 1 0 
1 106.5 62.080000000000041 0 -1 
1 0 0 1 0 
1 112.58 56 0 -1 
1 0 0 1 0 
1 8 62.080000000000041 1 0 
1 0 0 1 0 
1 112.58 8 -1 0 
1 0 0 1 0 
1 8 56 0 1 
1 0 0 1 0 
1 106.5 8 0 -1 
1 0 0 1 0 
1 1.9200000000000061 56 1 0 
1 0 0 1 0 
1 106.5 1.9199999999999591 -1 0 
1 0 0 1 0 
1 1.9200000000000061 8 0 1 
1 0 0 1 0 
1 8 1.9199999999999591 0 1 
1 0 0 1 0 
1 8 8 -1 0 
1 0 0 1 0 
2 5 5 1 0 -0 1 1.75
1 0 6 1 0 
2 5 59 1 0 -0 1 1.75
1 0 6 1 0 
2 109.5 59 1 0 -0 1 1.75
1 0 6 1 0 
1 0 0 0 1 
1 0 64 1 0 
1 0 114.5 1 0 
1 0 -64 1 0 
1 114.5 0 0 1 
1 0 0 0 -1 
1 6.2831853071795862 -0 0 1 
1 0 -0 0 1 
1 0 0 1 0 
2 0 0 1 0 -0 1 1.75
1 0 0 0 -1 
1 6.0800000000000409 0 0 -1 
1 0 -24.5 1 0 
1 -104.58 0 -1 0 
1 6.0799999999999983 0 0 -1 
1 0 0 0 -1 
1 0 0 0 -1 
1 98.5 0 0 -1 
1 0 -24.5 1 0 
1 -104.58 6.0800000000000409 0 -1 
1 0 -24.5 1 0 
1 -110.66 0 0 -1 
1 48 0 0 -1 
1 0 0 0 -1 
1 0 0 0 -1 
1 6.0800000000000409 0 0 -1 
1 0 -24.5 1 0 
1 -6.0799999999999939 6.0800000000000409 -1 0 
1 0 -24.5 1 0 
1 -110.66 -48 1 0 
1 6.0799999999999983 0 0 -1 
1 0 0 0 -1 
1 0 0 0 -1 
1 6.0799999999999939 0 0 -1 
1 0 -24.5 1 0 
1 -6.0799999999999939 0 0 1 
1 0 -24.5 1 0 
1 -104.58 -48 0 -1 
1 6.0800000000000409 0 0 -1 
1 0 0 0 -1 
1 0 0 0 -1 
1 48 0 0 -1 
1 0 -24.5 1 0 
1 0 0 -1 0 
1 0 -24.5 1 0 
1 -104.58 -54.080000000000041 1 0 
1 98.5 0 0 -1 
1 0 0 0 -1 
1 0 0 0 -1 
1 6.0799999999999939 0 0 -1 
1 0 -24.5 1 0 
1 0 -48 0 1 
1 0 -24.5 1 0 
1 -6.0799999999999939 -54.080000000000041 0 1 
1 6.0800000000000409 0 0 -1 
1 0 0 0 -1 
1 0 -24.5 1 0 
1 -6.0799999999999939 -48 1 0 
1 6.2831853071795862 -0 0 1 
1 0 -0 0 1 
1 0 0 1 0 
2 0 0 1 0 -0 1 1.75
1 6.2831853071795862 -0 0 1 
1 0 -0 0 1 
1 0 0 1 0 
2 0 0 1 0 -0 1 1.75
1 6.2831853071795862 -0 0 1 
1 0 -0 0 1 
1 0 0 1 0 
2 0 0 1 0 -0 1 1.75
Curves 60
1 0 0 0 0 0 1 
1 0 0 26 -0 1 0 
1 0 64 0 0 0 1 
1 0 0 0 -0 1 0 
1 0 0 0 1 0 -0 
1 114.5 0 0 0 0 1 
1 0 0 26 1 0 -0 
1 0 64 26 1 0 -0 
1 114.5 0 26 0 1 0 
2 0 0 6 0 0 1 1 0 -0 -0 1 0 1.75
1 106.5 56 0 1 0 0 
1 106.5 62.080000000000041 0 0 -1 0 
1 112.58 56 0 0 -1 0 
1 8 62.080000000000041 0 1 0 0 
1 112.58 8 0 -1 0 0 
1 8 56 0 0 1 0 
1 106.5 8 0 0 -1 0 
1 1.9200000000000061 56 0 1 0 0 
1 106.5 1.9199999999999591 0 -1 0 0 
1 1.9200000000000061 8 0 0 1 0 
1 8 1.9199999999999591 0 0 1 0 
1 8 8 0 -1 0 0 
2 0 0 6 0 0 1 1 0 -0 -0 1 0 1.75
2 0 0 6 0 0 1 1 0 -0 -0 1 0 1.75
2 0 0 6 0 0 1 1 0 -0 -0 1 0 1.75
1 0 64 0 1 0 -0 
1 114.5 64 0 0 0 1 
1 114.5 0 0 -0 1 0 
1 1.75 -4.2862637970157361e-16 0 0 0 1 
2 0 0 0 0 0 1 1 0 -0 -0 1 0 1.75
1 106.5 56 26 -0 -0 -1 
1 106.5 56 0 1 0 0 
1 112.58 56 26 -0 -0 -1 
1 106.5 62.080000000000041 26 -0 -0 -1 
1 106.5 62.080000000000041 0 0 -1 0 
1 112.58 56 0 0 -1 0 
1 112.58 8 26 -0 -0 -1 
1 8 62.080000000000041 26 -0 -0 -1 
1 8 62.080000000000041 0 1 0 0 
1 112.58 8 0 -1 0 0 
1 106.5 8 26 -0 -0 -1 
1 8 56 26 -0 -0 -1 
1 8 56 0 0 1 0 
1 106.5 8 0 0 -1 0 
1 106.5 1.9199999999999591 26 -0 -0 -1 
1 1.9200000000000061 56 26 -0 -0 -1 
1 1.9200000000000061 56 0 1 0 0 
1 106.5 1.9199999999999591 0 -1 0 0 
1 8 1.9199999999999591 26 -0 -0 -1 
1 1.9200000000000061 8 26 -0 -0 -1 
1 1.9200000000000061 8 0 0 1 0 
1 8 1.9199999999999591 0 0 1 0 
1 8 8 26 -0 -0 -1 
1 8 8 0 -1 0 0 
1 1.75 -4.2862637970157361e-16 0 0 0 1 
2 0 0 0 0 0 1 1 0 -0 -0 1 0 1.75
1 1.75 -4.2862637970157361e-16 0 0 0 1 
2 0 0 0 0 0 1 1 0 -0 -0 1 0 1.75
1 1.75 -4.2862637970157361e-16 0 0 0 1 
2 0 0 0 0 0 1 1 0 -0 -0 1 0 1.75
Polygon3D 0
PolygonOnTriangulations 0
Surfaces 27
1 0 0 0 1 0 -0 0 0 1 0 -1 0 
1 0 0 0 -0 1 0 0 0 1 1 0 -0 
1 0 0 26 0 0 1 1 0 -0 -0 1 0 
1 0 64 0 -0 1 0 0 0 1 1 0 -0 
1 0 0 0 0 0 1 1 0 -0 -0 1 0 
1 114.5 0 0 1 0 -0 0 0 1 0 -1 0 
2 0 0 0 0 0 1 1 0 -0 -0 1 0 1.75
1 106.5 56 26 0 -1 0 1 0 0 -0 0 1 
1 106.5 62.080000000000041 26 -1 0 0 0 -1 0 0 0 1 
1 112.58 56 26 -1 0 0 0 -1 0 0 0 1 
1 8 62.080000000000041 26 0 -1 0 1 0 0 -0 0 1 
1 112.58 8 26 0 1 -0 -1 0 0 0 0 1 
1 8 56 26 1 0 0 -0 1 0 0 -0 1 
1 106.5 8 26 -1 0 0 0 -1 0 0 0 1 
1 1.9200000000000061 56 26 0 -1 0 1 0 0 -0 0 1 
1 106.5 1.9199999999999591 26 0 1 -0 -1 0 0 0 0 1 
1 1.9200000000000061 8 26 1 0 0 -0 1 0 0 -0 1 
1 8 1.9199999999999591 26 1 0 0 -0 1 0 0 -0 1 
1 8 8 26 0 1 -0 -1 0 0 0 0 1 
2 0 0 0 0 0 1 1 0 -0 -0 1 0 1.75
2 0 0 0 0 0 1 1 0 -0 -0 1 0 1.75
2 0 0 0 0 0 1 1 0 -0 -0 1 0 1.75
1 0 0 0 0 0 1 1 0 -0 -0 1 0 
1 1.9200000000000061 56 26 0 0 -1 -1 0 -0 0 1 0 
1 0 0 0 0 0 1 1 0 -0 -0 1 0 
1 0 0 0 0 0 1 1 0 -0 -0 1 0 
1 0 0 0 0 0 1 1 0 -0 -0 1 0 
Triangulations 0

TShapes 162
Ve
1e-07
0 0 26
0 0

0101101
*
Ve
1e-07
0 0 0
0 0

0101101
*
Ed
 1e-07 1 1 0
1  1 0 0 26
2  1 1 0 0 26
2  2 2 0 0 26
0

0101000
-162 6 +161 6 *
Ve
1e-07
0 64 26
0 0

0101101
*
Ed
 1e-07 1 1 0
1  2 0 0 64
2  3 1 0 0 64
2  4 3 0 0 64
0

0101000
-159 6 +162 6 *
Ve
1e-07
0 64 0
0 0

0101101
*
Ed
 1e-07 1 1 0
1  3 0 0 26
2  5 1 0 0 26
2  6 4 0 0 26
0

0101000
-159 6 +157 6 *
Ed
 1e-07 1 1 0
1  4 0 0 64
2  7 1 0 0 64
2  8 5 0 0 64
0

0101000
-157 6 +161 6 *
Wi

0101000
-160 0 -158 0 +156 0 +155 0 *
Fa
0  1e-07 1 0

0101000
+154 0 *
Ve
1e-07
114.5 0 0
0 0

0101101
*
Ed
 1e-07 1 1 0
1  5 0 0 114.5
2  9 2 0 0 114.5
2  10 5 0 0 114.5
0

0101000
-152 6 +161 6 *
Ve
1e-07
114.5 0 26
0 0

0101101
*
Ed
 1e-07 1 1 0
1  6 0 0 26
2  11 2 0 0 26
2  12 6 0 0 26
0

0101000
-150 6 +152 6 *
Ed
 1e-07 1 1 0
1  7 0 0 114.5
2  13 2 0 0 114.5
2  14 3 0 0 114.5
0

0101000
-150 6 +162 6 *
Wi

0101000
-151 0 -149 0 +148 0 +160 0 *
Fa
0  1e-07 2 0

0101000
+147 0 *
Ve
1e-07
114.5 64 26
0 0

0101101
*
Ed
 1e-07 1 1 0
1  8 0 0 114.5
2  15 3 0 0 114.5
2  16 4 0 0 114.5
0

0101000
-145 6 +159 6 *
Ed
 1e-07 1 1 0
1  9 0 0 64
2  17 3 0 0 64
2  18 6 0 0 64
0

0101000
-145 6 +150 6 *
Wi

0101000
-158 5 -144 5 +148 5 +143 5 *
Ve
1e-07
111.25 5 26
0 0

0101101
*
Ed
 1e-07 1 1 0
1  10 0 0 6.28318530717959
2  19 3 11 0 6.28318530717959
2  20 7 0 0 6.28318530717959
0

0101100
+141 12 -141 12 *
Wi

0101100
-140 10 *
Ve
0.0001
106.5 56 26
0 0

0101101
*
Ve
1e-07
112.58 56 26
0 0

0101101
*
Ed
 1e-07 1 1 0
1  11 0 0 6.08
2  21 3 15 0 6.08
2  22 8 16 0 6.08
0

0101000
+138 17 -137 17 *
Ve
1e-07
106.5 62.08 26
0 0

0101101
*
Ed
 1e-07 1 1 0
1  12 0 0 6.08000000000004
2  23 3 15 0 6.08000000000004
2  24 9 16 0 6.08000000000004
0

0101000
+135 17 -138 17 *
Ve
1e-07
112.58 8 26
0 0

0101101
*
Ed
 1e-07 1 1 0
1  13 0 0 48
2  25 3 15 0 48
2  26 10 16 0 48
0

0101000
+137 17 -133 17 *
Ve
1e-07
8 62.08 26
0 0

0101101
*
Ed
 1e-07 1 1 0
1  14 0 0 98.5
2  27 3 15 0 98.5
2  28 11 16 0 98.5
0

0101000
+131 17 -135 17 *
Ve
1e-07
106.5 8 26
0 0

0101101
*
Ed
 1e-07 1 1 0
1  15 0 0 6.08
2  29 3 15 0 6.08
2  30 12 16 0 6.08
0

0101000
+133 17 -129 17 *
Ve
1e-07
8 56 26
0 0

0101101
*
Ed
 1e-07 1 1 0
1  16 0 0 6.08000000000004
2  31 3 15 0 6.08000000000004
2  32 13 16 0 6.08000000000004
0

0101000
+127 17 -131 17 *
Ve
1e-07
106.5 1.91999999999996 26
0 0

0101101
*
Ed
 1e-07 1 1 0
1  17 0 0 6.08000000000004
2  33 3 15 0 6.08000000000004
2  34 14 16 0 6.08000000000004
0

0101000
+129 17 -125 17 *
Ve
1e-07
1.92000000000001 56 26
0 0

0101101
*
Ed
 1e-07 1 1 0
1  18 0 0 6.07999999999999
2  35 3 15 0 6.07999999999999
2  36 15 16 0 6.07999999999999
0

0101000
+123 17 -127 17 *
Ve
1e-07
8 1.91999999999996 26
0 0

0101101
*
Ed
 1e-07 1 1 0
1  19 0 0 98.5
2  37 3 15 0 98.5
2  38 16 16 0 98.5
0

0101000
+125 17 -121 17 *
Ve
1e-07
1.92000000000001 8 26
0 0

0101101
*
Ed
 1e-07 1 1 0
1  20 0 0 48
2  39 3 15 0 48
2  40 17 16 0 48
0

0101000
+119 17 -123 17 *
Ve
0.0001
8 8 26
0 0

0101101
*
Ed
 1e-07 1 1 0
1  21 0 0 6.08000000000004
2  41 3 15 0 6.08000000000004
2  42 18 16 0 6.08000000000004
0

0101000
+121 17 -117 17 *
Ed
 1e-07 1 1 0
1  22 0 0 6.07999999999999
2  43 3 15 0 6.07999999999999
2  44 19 16 0 6.07999999999999
0

0101000
+117 17 -119 17 *
Wi

0101000
+136 14 +134 14 +132 14 +130 14 +128 14 +126 14 +124 14 +122 14 +120 14 +118 14 
+116 14 +115 14 *
Ve
1e-07
6.75 5 26
0 0

0101101
*
Ed
 1e-07 1 1 0
1  23 0 0 6.28318530717959
2  45 3 19 0 6.28318530717959
2  46 20 0 0 6.28318530717959
0

0101100
+113 20 -113 20 *
Wi

0101100
-112 18 *
Ve
1e-07
6.75 59 26
0 0

0101101
*
Ed
 1e-07 1 1 0
1  24 0 0 6.28318530717959
2  47 3 23 0 6.28318530717959
2  48 21 0 0 6.28318530717959
0

0101100
+110 24 -110 24 *
Wi

0101100
-109 22 *
Ve
1e-07
111.25 59 26
0 0

0101101
*
Ed
 1e-07 1 1 0
1  25 0 0 6.28318530717959
2  49 3 27 0 6.28318530717959
2  50 22 0 0 6.28318530717959
0

0101100
+107 28 -107 28 *
Wi

0101100
-106 26 *
Fa
0  1e-07 3 5

0101000
+142 0 +139 0 +114 0 +111 0 +108 0 +105 0 *
Ve
1e-07
114.5 64 0
0 0

0101101
*
Ed
 1e-07 1 1 0
1  26 0 0 114.5
2  51 4 0 0 114.5
2  52 5 0 0 114.5
0

0101000
-103 6 +157 6 *
Ed
 1e-07 1 1 0
1  27 0 0 26
2  53 4 0 0 26
2  54 6 0 0 26
0

0101000
-145 6 +103 6 *
Wi

0101000
-102 0 -101 0 +144 0 +156 0 *
Fa
0  1e-07 4 0

0101000
+100 0 *
Ed
 1e-07 1 1 0
1  28 0 0 64
2  55 5 0 0 64
2  56 6 0 0 64
0

0101000
-103 6 +152 6 *
Wi

0101000
-155 0 -102 0 +98 0 +151 0 *
Fa
0  1e-07 5 0

0101000
+97 0 *
Wi

0101000
-149 0 -143 0 +101 0 +98 0 *
Fa
0  1e-07 6 0

0101000
+95 0 *
Ve
1e-07
111.25 5 20
0 0

0101101
*
Ed
 1e-07 1 1 0
1  29 0 0 6
3  57 58CN 7 0 0 6
0

0101000
-141 12 +93 12 *
Ed
 1e-07 1 1 0
1  30 0 0 6.28318530717959
2  59 7 0 0 6.28318530717959
2  60 23 0 0 6.28318530717959
0

0101100
+93 12 -93 12 *
Wi

0101000
+92 10 +91 10 -92 10 -140 10 *
Fa
0  1e-07 7 10

0101000
+90 0 *
Ve
0.0001
106.5 56 1.5
0 0

0101101
*
Ed
 1e-07 1 1 0
1  31 0 0 24.5
2  61 8 0 0 24.5
2  62 9 0 0 24.5
0

0101000
+138 29 -88 29 *
Ve
1e-07
112.58 56 1.5
0 0

0101101
*
Ed
 1e-07 1 1 0
1  32 0 0 6.08
2  63 8 33 0 6.08
2  64 24 34 0 6.08
0

0101000
+88 35 -86 35 *
Ed
 1e-07 1 1 0
1  33 0 0 24.5
2  65 8 0 0 24.5
2  66 10 0 0 24.5
0

0101000
+137 29 -86 29 *
Wi

0101000
+87 0 -136 30 +85 32 -84 0 *
Fa
0  1e-07 8 0

0101000
+83 0 *
Ve
1e-07
106.5 62.08 1.5
0 0

0101101
*
Ed
 1e-07 1 1 0
1  34 0 0 24.5
2  67 9 0 0 24.5
2  68 11 0 0 24.5
0

0101000
+135 29 -81 29 *
Ed
 1e-07 1 1 0
1  35 0 0 6.08000000000004
2  69 9 33 0 6.08000000000004
2  70 24 34 0 6.08000000000004
0

0101000
+81 35 -88 35 *
Wi

0101000
+80 0 -134 30 +79 32 -87 0 *
Fa
0  1e-07 9 0

0101000
+78 0 *
Ve
1e-07
112.58 8 1.5
0 0

0101101
*
Ed
 1e-07 1 1 0
1  36 0 0 48
2  71 10 33 0 48
2  72 24 34 0 48
0

0101000
+86 35 -76 35 *
Ed
 1e-07 1 1 0
1  37 0 0 24.5
2  73 10 0 0 24.5
2  74 12 0 0 24.5
0

0101000
+133 29 -76 29 *
Wi

0101000
+84 0 -132 30 +75 32 -74 0 *
Fa
0  1e-07 10 0

0101000
+73 0 *
Ve
1e-07
8 62.08 1.5
0 0

0101101
*
Ed
 1e-07 1 1 0
1  38 0 0 24.5
2  75 11 0 0 24.5
2  76 13 0 0 24.5
0

0101000
+131 29 -71 29 *
Ed
 1e-07 1 1 0
1  39 0 0 98.5
2  77 11 33 0 98.5
2  78 24 34 0 98.5
0

0101000
+71 35 -81 35 *
Wi

0101000
+70 0 -130 30 +69 32 -80 0 *
Fa
0  1e-07 11 0

0101000
+68 0 *
Ve
1e-07
106.5 8 1.5
0 0

0101101
*
Ed
 1e-07 1 1 0
1  40 0 0 6.08
2  79 12 33 0 6.08
2  80 24 34 0 6.08
0

0101000
+76 35 -66 35 *
Ed
 1e-07 1 1 0
1  41 0 0 24.5
2  81 12 0 0 24.5
2  82 14 0 0 24.5
0

0101000
+129 29 -66 29 *
Wi

0101000
+74 0 -128 30 +65 32 -64 0 *
Fa
0  1e-07 12 0

0101000
+63 0 *
Ve
1e-07
8 56 1.5
0 0

0101101
*
Ed
 1e-07 1 1 0
1  42 0 0 24.5
2  83 13 0 0 24.5
2  84 15 0 0 24.5
0

0101000
+127 29 -61 29 *
Ed
 1e-07 1 1 0
1  43 0 0 6.08000000000004
2  85 13 33 0 6.08000000000004
2  86 24 34 0 6.08000000000004
0

0101000
+61 35 -71 35 *
Wi

0101000
+60 0 -126 30 +59 32 -70 0 *
Fa
0  1e-07 13 0

0101000
+58 0 *
Ve
1e-07
106.5 1.91999999999996 1.5
0 0

0101101
*
Ed
 1e-07 1 1 0
1  44 0 0 6.08000000000004
2  87 14 33 0 6.08000000000004
2  88 24 34 0 6.08000000000004
0

0101000
+66 35 -56 35 *
Ed
 1e-07 1 1 0
1  45 0 0 24.5
2  89 14 0 0 24.5
2  90 16 0 0 24.5
0

0101000
+125 29 -56 29 *
Wi

0101000
+64 0 -124 30 +55 32 -54 0 *
Fa
0  1e-07 14 0

0101000
+53 0 *
Ve
1e-07
1.92000000000001 56 1.5
0 0

0101101
*
Ed
 1e-07 1 1 0
1  46 0 0 24.5
2  91 15 0 0 24.5
2  92 17 0 0 24.5
0

0101000
+123 29 -51 29 *
Ed
 1e-07 1 1 0
1  47 0 0 6.07999999999999
2  93 15 33 0 6.07999999999999
2  94 24 34 0 6.07999999999999
0

0101000
+51 35 -61 35 *
Wi

0101000
+50 0 -122 30 +49 32 -60 0 *
Fa
0  1e-07 15 0

0101000
+48 0 *
Ve
1e-07
8 1.91999999999996 1.5
0 0

0101101
*
Ed
 1e-07 1 1 0
1  48 0 0 98.5
2  95 16 33 0 98.5
2  96 24 34 0 98.5
0

0101000
+56 35 -46 35 *
Ed
 1e-07 1 1 0
1  49 0 0 24.5
2  97 16 0 0 24.5
2  98 18 0 0 24.5
0

0101000
+121 29 -46 29 *
Wi

0101000
+54 0 -120 30 +45 32 -44 0 *
Fa
0  1e-07 16 0

0101000
+43 0 *
Ve
1e-07
1.92000000000001 8 1.5
0 0

0101101
*
Ed
 1e-07 1 1 0
1  50 0 0 24.5
2  99 17 0 0 24.5
2  100 19 0 0 24.5
0

0101000
+119 29 -41 29 *
Ed
 1e-07 1 1 0
1  51 0 0 48
2  101 17 33 0 48
2  102 24 34 0 48
0

0101000
+41 35 -51 35 *
Wi

0101000
+40 0 -118 30 +39 32 -50 0 *
Fa
0  1e-07 17 0

0101000
+38 0 *
Ve
0.0001
8 8 1.5
0 0

0101101
*
Ed
 1e-07 1 1 0
1  52 0 0 6.08000000000004
2  103 18 33 0 6.08000000000004
2  104 24 34 0 6.08000000000004
0

0101000
+46 35 -36 35 *
Ed
 1e-07 1 1 0
1  53 0 0 24.5
2  105 18 0 0 24.5
2  106 19 0 0 24.5
0

0101000
+117 29 -36 29 *
Wi

0101000
+44 0 -116 30 +35 32 -34 0 *
Fa
0  1e-07 18 0

0101000
+33 0 *
Ed
 1e-07 1 1 0
1  54 0 0 6.07999999999999
2  107 19 33 0 6.07999999999999
2  108 24 34 0 6.07999999999999
0

0101000
+36 35 -41 35 *
Wi

0101000
+34 0 -115 30 +31 32 -40 0 *
Fa
0  1e-07 19 0

0101000
+30 0 *
Ve
1e-07
6.75 5 20
0 0

0101101
*
Ed
 1e-07 1 1 0
1  55 0 0 6
3  109 110CN 20 0 0 6
0

0101000
-113 20 +28 20 *
Ed
 1e-07 1 1 0
1  56 0 0 6.28318530717959
2  111 20 0 0 6.28318530717959
2  112 25 0 0 6.28318530717959
0

0101100
+28 20 -28 20 *
Wi

0101000
+27 18 +26 18 -27 18 -112 18 *
Fa
0  1e-07 20 18

0101000
+25 0 *
Ve
1e-07
6.75 59 20
0 0

0101101
*
Ed
 1e-07 1 1 0
1  57 0 0 6
3  113 114CN 21 0 0 6
0

0101000
-110 24 +23 24 *
Ed
 1e-07 1 1 0
1  58 0 0 6.28318530717959
2  115 21 0 0 6.28318530717959
2  116 26 0 0 6.28318530717959
0

0101100
+23 24 -23 24 *
Wi

0101000
+22 22 +21 22 -22 22 -109 22 *
Fa
0  1e-07 21 22

0101000
+20 0 *
Ve
1e-07
111.25 59 20
0 0

0101101
*
Ed
 1e-07 1 1 0
1  59 0 0 6
3  117 118CN 22 0 0 6
0

0101000
-107 28 +18 28 *
Ed
 1e-07 1 1 0
1  60 0 0 6.28318530717959
2  119 22 0 0 6.28318530717959
2  120 27 0 0 6.28318530717959
0

0101100
+18 28 -18 28 *
Wi

0101000
+17 26 +16 26 -17 26 -106 26 *
Fa
0  1e-07 22 26

0101000
+15 0 *
Wi

0101000
-91 0 *
Fa
0  1e-07 23 0

0101000
-13 0 *
Wi

0101100
+49 0 +59 0 +69 0 +79 0 +85 0 +75 0 +65 0 +55 0 +45 0 +35 0 
+31 0 +39 0 *
Fa
0  1e-07 24 0

0101000
+11 13 *
Wi

0101000
-26 0 *
Fa
0  1e-07 25 0

0101000
-9 0 *
Wi

0101000
-21 0 *
Fa
0  1e-07 26 0

0101000
-7 0 *
Wi

0101000
-16 0 *
Fa
0  1e-07 27 0

0101000
-5 0 *
Sh

0101100
-153 5 -146 5 +104 0 +99 5 -96 5 +94 5 -89 0 +82 4 +77 4 +72 4 
+67 4 +62 4 +57 4 +52 4 +47 4 +42 4 +37 4 +32 4 +29 4 -24 0 
-19 0 -14 0 +12 10 -10 36 +8 18 +6 22 +4 26 *
So

0100000
+3 0 *
Co

1100000
+2 0 *

+1 1 