DBRep_DrawableShape

CASCADE Topology V1, (c) Matra-Datavision
Locations 12
1
              1               0               0               0 
              0               1               0               0 
              0               0               1               0 
1
              1               0               0               5 
              0               1               0               5 
              0               0               1              20 
2  1 -1 2 -1 0
1
              1               0               0               0 
              0               1               0              54 
              0               0               1               0 
2  2 1 4 1 0
2  1 -1 4 -1 2 -1 0
1
              1               0               0           104.5 
              0               1               0               0 
              0               0               1               0 
2  2 1 7 1 0
2  1 -1 7 -1 2 -1 0
1
              1               0               0           104.5 
              0               1               0              54 
              0               0               1               0 
2  2 1 10 1 0
2  1 -1 10 -1 2 -1 0
Curve2ds 24
1 0 6 1 0 
2 0 0 1 0 -0 1 1.75
1 6.2831853071795862 -0 0 1 
1 0 -0 0 1 
1 0 0 1 0 
2 0 0 1 0 -0 1 1.75
1 0 6 1 0 
2 0 0 1 0 -0 1 1.75
1 6.2831853071795862 -0 0 1 
1 0 -0 0 1 
1 0 0 1 0 
2 0 0 1 0 -0 1 1.75
1 0 6 1 0 
2 0 0 1 0 -0 1 1.75
1 6.2831853071795862 -0 0 1 
1 0 -0 0 1 
1 0 0 1 0 
2 0 0 1 0 -0 1 1.75
1 0 6 1 0 
2 0 0 1 0 -0 1 1.75
1 6.2831853071795862 -0 0 1 
1 0 -0 0 1 
1 0 0 1 0 
2 0 0 1 0 -0 1 1.75
Curves 12
2 0 0 6 0 0 1 1 0 -0 -0 1 0 1.75
1 1.75 -4.2862637970157361e-16 0 0 0 1 
2 0 0 0 0 0 1 1 0 -0 -0 1 0 1.75
2 0 0 6 0 0 1 1 0 -0 -0 1 0 1.75
1 1.75 -4.2862637970157361e-16 0 0 0 1 
2 0 0 0 0 0 1 1 0 -0 -0 1 0 1.75
2 0 0 6 0 0 1 1 0 -0 -0 1 0 1.75
1 1.75 -4.2862637970157361e-16 0 0 0 1 
2 0 0 0 0 0 1 1 0 -0 -0 1 0 1.75
2 0 0 6 0 0 1 1 0 -0 -0 1 0 1.75
1 1.75 -4.2862637970157361e-16 0 0 0 1 
2 0 0 0 0 0 1 1 0 -0 -0 1 0 1.75
Polygon3D 0
PolygonOnTriangulations 0
Surfaces 12
2 0 0 0 0 0 1 1 0 -0 -0 1 0 1.75
1 0 0 6 0 0 1 1 0 -0 -0 1 0 
1 0 0 0 0 0 1 1 0 -0 -0 1 0 
2 0 0 0 0 0 1 1 0 -0 -0 1 0 1.75
1 0 0 6 0 0 1 1 0 -0 -0 1 0 
1 0 0 0 0 0 1 1 0 -0 -0 1 0 
2 0 0 0 0 0 1 1 0 -0 -0 1 0 1.75
1 0 0 6 0 0 1 1 0 -0 -0 1 0 
1 0 0 0 0 0 1 1 0 -0 -0 1 0 
2 0 0 0 0 0 1 1 0 -0 -0 1 0 1.75
1 0 0 6 0 0 1 1 0 -0 -0 1 0 
1 0 0 0 0 0 1 1 0 -0 -0 1 0 
Triangulations 0

TShapes 53
Ve
1e-07
6.75 5 26
0 0

0101101
*
Ed
 1e-07 1 1 0
1  1 0 0 6.28318530717959
2  1 1 0 0 6.28318530717959
2  2 2 0 0 6.28318530717959
0

0101100
+53 3 -53 3 *
Ve
1e-07
6.75 5 20
0 0

0101101
*
Ed
 1e-07 1 1 0
1  2 0 0 6
3  3 4CN 1 0 0 6
0

0101000
-53 3 +51 3 *
Ed
 1e-07 1 1 0
1  3 0 0 6.28318530717959
2  5 1 0 0 6.28318530717959
2  6 3 0 0 6.28318530717959
0

0101100
+51 3 -51 3 *
Wi

0101000
-52 0 +50 0 +49 0 -50 0 *
Fa
0  1e-07 1 0

0101000
+48 0 *
Wi

0101000
+52 0 *
Fa
0  1e-07 2 0

0101000
+46 0 *
Wi

0101000
-49 0 *
Fa
0  1e-07 3 0

0101000
-44 0 *
Sh

0101100
+47 0 +45 0 -43 0 *
So

0100100
+42 0 *
Ve
1e-07
6.75 59 26
0 0

0101101
*
Ed
 1e-07 1 1 0
1  4 0 0 6.28318530717959
2  7 4 0 0 6.28318530717959
2  8 5 0 0 6.28318530717959
0

0101100
+40 6 -40 6 *
Ve
1e-07
6.75 59 20
0 0

0101101
*
Ed
 1e-07 1 1 0
1  5 0 0 6
3  9 10CN 4 0 0 6
0

0101000
-40 6 +38 6 *
Ed
 1e-07 1 1 0
1  6 0 0 6.28318530717959
2  11 4 0 0 6.28318530717959
2  12 6 0 0 6.28318530717959
0

0101100
+38 6 -38 6 *
Wi

0101000
-39 0 +37 0 +36 0 -37 0 *
Fa
0  1e-07 4 0

0101000
+35 0 *
Wi

0101000
+39 0 *
Fa
0  1e-07 5 0

0101000
+33 0 *
Wi

0101000
-36 0 *
Fa
0  1e-07 6 0

0101000
-31 0 *
Sh

0101100
+34 0 +32 0 -30 0 *
So

0100100
+29 0 *
Ve
1e-07
111.25 5 26
0 0

0101101
*
Ed
 1e-07 1 1 0
1  7 0 0 6.28318530717959
2  13 7 0 0 6.28318530717959
2  14 8 0 0 6.28318530717959
0

0101100
+27 9 -27 9 *
Ve
1e-07
111.25 5 20
0 0

0101101
*
Ed
 1e-07 1 1 0
1  8 0 0 6
3  15 16CN 7 0 0 6
0

0101000
-27 9 +25 9 *
Ed
 1e-07 1 1 0
1  9 0 0 6.28318530717959
2  17 7 0 0 6.28318530717959
2  18 9 0 0 6.28318530717959
0

0101100
+25 9 -25 9 *
Wi

0101000
-26 0 +24 0 +23 0 -24 0 *
Fa
0  1e-07 7 0

0101000
+22 0 *
Wi

0101000
+26 0 *
Fa
0  1e-07 8 0

0101000
+20 0 *
Wi

0101000
-23 0 *
Fa
0  1e-07 9 0

0101000
-18 0 *
Sh

0101100
+21 0 +19 0 -17 0 *
So

0100100
+16 0 *
Ve
1e-07
111.25 59 26
0 0

0101101
*
Ed
 1e-07 1 1 0
1  10 0 0 6.28318530717959
2  19 10 0 0 6.28318530717959
2  20 11 0 0 6.28318530717959
0

0101100
+14 12 -14 12 *
Ve
1e-07
111.25 59 20
0 0

0101101
*
Ed
 1e-07 1 1 0
1  11 0 0 6
3  21 22CN 10 0 0 6
0

0101000
-14 12 +12 12 *
Ed
 1e-07 1 1 0
1  12 0 0 6.28318530717959
2  23 10 0 0 6.28318530717959
2  24 12 0 0 6.28318530717959
0

0101100
+12 12 -12 12 *
Wi

0101000
-13 0 +11 0 +10 0 -11 0 *
Fa
0  1e-07 10 0

0101000
+9 0 *
Wi

0101000
+13 0 *
Fa
0  1e-07 11 0

0101000
+7 0 *
Wi

0101000
-10 0 *
Fa
0  1e-07 12 0

0101000
-5 0 *
Sh

0101100
+8 0 +6 0 -4 0 *
So

0100100
+3 0 *
Co

1100000
+41 2 +28 5 +15 8 +2 11 *

+1 1 