DBRep_DrawableShape

CASCADE Topology V1, (c) Matra-Datavision
Locations 10
1
              1               0               0              -0 
              0               1               0               0 
              0               0               1              26 
1
              1               0               0               0 
              0               1               0               0 
              0               0               1               0 
2  1 1 2 -1 0
2  2 1 1 -1 0
2  1 -1 0
1
              1               0               0              -0 
              0               1               0              -0 
              0               0               1           -24.5 
2  1 1 2 -1 6 1 0
2  6 -1 2 1 1 -1 0
2  2 -1 0
2  2 -1 6 1 0
Curve2ds 72
1 0 0 0 -1 
1 48 0 0 -1 
1 6.0799999999999939 0 0 -1 
1 0 0 0 -1 
1 0 0 1 0 
1 0 0 -1 0 
1 0 -24.5 1 0 
1 0 0 -1 0 
1 6.0800000000000409 0 0 -1 
1 0 0 0 -1 
1 0 0 1 0 
1 -6.0799999999999939 0 0 1 
1 0 -24.5 1 0 
1 -6.0799999999999939 0 0 1 
1 98.5 0 0 -1 
1 0 0 0 -1 
1 0 0 1 0 
1 -6.0799999999999939 6.0800000000000409 -1 0 
1 0 -24.5 1 0 
1 -6.0799999999999939 6.0800000000000409 -1 0 
1 6.0800000000000409 0 0 -1 
1 0 0 0 -1 
1 0 0 1 0 
1 -104.58 6.0800000000000409 0 -1 
1 0 -24.5 1 0 
1 -104.58 6.0800000000000409 0 -1 
1 6.0799999999999983 0 0 -1 
1 0 0 0 -1 
1 0 0 1 0 
1 -104.58 0 -1 0 
1 0 -24.5 1 0 
1 -104.58 0 -1 0 
1 48 0 0 -1 
1 0 0 0 -1 
1 0 0 1 0 
1 -110.66 0 0 -1 
1 0 -24.5 1 0 
1 -110.66 0 0 -1 
1 6.0799999999999983 0 0 -1 
1 0 0 0 -1 
1 0 0 1 0 
1 -110.66 -48 1 0 
1 0 -24.5 1 0 
1 -110.66 -48 1 0 
1 6.0800000000000409 0 0 -1 
1 0 0 0 -1 
1 0 0 1 0 
1 -104.58 -48 0 -1 
1 0 -24.5 1 0 
1 -104.58 -48 0 -1 
1 98.5 0 0 -1 
1 0 0 0 -1 
1 0 0 1 0 
1 -104.58 -54.080000000000041 1 0 
1 0 -24.5 1 0 
1 -104.58 -54.080000000000041 1 0 
1 6.0800000000000409 0 0 -1 
1 0 0 0 -1 
1 0 0 1 0 
1 -6.0799999999999939 -54.080000000000041 0 1 
1 0 -24.5 1 0 
1 -6.0799999999999939 -54.080000000000041 0 1 
1 6.0799999999999939 0 0 -1 
1 0 0 0 -1 
1 0 0 1 0 
1 -6.0799999999999939 -48 1 0 
1 0 -24.5 1 0 
1 -6.0799999999999939 -48 1 0 
1 0 0 1 0 
1 0 -48 0 1 
1 0 -24.5 1 0 
1 0 -48 0 1 
Curves 36
1 1.9200000000000061 56 26 -0 -0 -1 
1 8 56 26 -0 -0 -1 
1 1.9200000000000061 56 0 1 0 0 
1 1.9200000000000061 56 0 1 0 0 
1 8 62.080000000000041 26 -0 -0 -1 
1 8 56 0 0 1 0 
1 8 56 0 0 1 0 
1 106.5 62.080000000000041 26 -0 -0 -1 
1 8 62.080000000000041 0 1 0 0 
1 8 62.080000000000041 0 1 0 0 
1 106.5 56 26 -0 -0 -1 
1 106.5 62.080000000000041 0 0 -1 0 
1 106.5 62.080000000000041 0 0 -1 0 
1 112.58 56 26 -0 -0 -1 
1 106.5 56 0 1 0 0 
1 106.5 56 0 1 0 0 
1 112.58 8 26 -0 -0 -1 
1 112.58 56 0 0 -1 0 
1 112.58 56 0 0 -1 0 
1 106.5 8 26 -0 -0 -1 
1 112.58 8 0 -1 0 0 
1 112.58 8 0 -1 0 0 
1 106.5 1.9199999999999591 26 -0 -0 -1 
1 106.5 8 0 0 -1 0 
1 106.5 8 0 0 -1 0 
1 8 1.9199999999999591 26 -0 -0 -1 
1 106.5 1.9199999999999591 0 -1 0 0 
1 106.5 1.9199999999999591 0 -1 0 0 
1 8 8 26 -0 -0 -1 
1 8 1.9199999999999591 0 0 1 0 
1 8 1.9199999999999591 0 0 1 0 
1 1.9200000000000061 8 26 -0 -0 -1 
1 8 8 0 -1 0 0 
1 8 8 0 -1 0 0 
1 1.9200000000000061 8 0 0 1 0 
1 1.9200000000000061 8 0 0 1 0 
Polygon3D 0
PolygonOnTriangulations 0
Surfaces 14
1 1.9200000000000061 56 26 0 -1 0 1 0 0 -0 0 1 
1 1.9200000000000061 8 26 1 0 0 -0 1 0 0 -0 1 
1 8 56 26 1 0 0 -0 1 0 0 -0 1 
1 1.9200000000000061 56 26 0 0 -1 -1 0 -0 0 1 0 
1 1.9200000000000061 56 26 0 0 -1 -1 0 -0 0 1 0 
1 8 62.080000000000041 26 0 -1 0 1 0 0 -0 0 1 
1 106.5 62.080000000000041 26 -1 0 0 0 -1 0 0 0 1 
1 106.5 56 26 0 -1 0 1 0 0 -0 0 1 
1 112.58 56 26 -1 0 0 0 -1 0 0 0 1 
1 112.58 8 26 0 1 -0 -1 0 0 0 0 1 
1 106.5 8 26 -1 0 0 0 -1 0 0 0 1 
1 106.5 1.9199999999999591 26 0 1 -0 -1 0 0 0 0 1 
1 8 1.9199999999999591 26 1 0 0 -0 1 0 0 -0 1 
1 8 8 26 0 1 -0 -1 0 0 0 0 1 
Triangulations 0

TShapes 90
Ve
1e-07
1.92000000000001 56 26
0 0

0101101
*
Ve
1e-07
1.92000000000001 56 1.5
0 0

0101101
*
Ed
 1e-07 1 1 0
1  1 0 0 24.5
2  1 1 0 0 24.5
2  2 2 0 0 24.5
0

0101000
+90 0 -89 0 *
Ve
1e-07
8 56 26
0 0

0101101
*
Ve
1e-07
8 56 1.5
0 0

0101101
*
Ed
 1e-07 1 1 0
1  2 0 0 24.5
2  3 1 0 0 24.5
2  4 3 0 0 24.5
0

0101000
+87 0 -86 0 *
Ed
 1e-07 1 1 0
1  3 0 0 6.07999999999999
2  5 1 4 0 6.07999999999999
2  6 4 5 0 6.07999999999999
0

0101000
+90 4 -87 4 *
Ed
 1e-07 1 1 0
1  4 0 0 6.07999999999999
2  7 1 8 0 6.07999999999999
2  8 5 5 0 6.07999999999999
0

0101000
+89 8 -86 8 *
Wi

0101000
+88 0 -85 0 -84 3 +83 7 *
Fa
0  1e-07 1 0

0101000
+82 0 *
Ve
1e-07
8 62.08 26
0 0

0101101
*
Ve
1e-07
8 62.08 1.5
0 0

0101101
*
Ed
 1e-07 1 1 0
1  5 0 0 24.5
2  9 3 0 0 24.5
2  10 6 0 0 24.5
0

0101000
+80 0 -79 0 *
Ed
 1e-07 1 1 0
1  6 0 0 6.08000000000004
2  11 3 4 0 6.08000000000004
2  12 4 5 0 6.08000000000004
0

0101000
+87 4 -80 4 *
Ed
 1e-07 1 1 0
1  7 0 0 6.08000000000004
2  13 3 8 0 6.08000000000004
2  14 5 5 0 6.08000000000004
0

0101000
+86 8 -79 8 *
Wi

0101000
+85 0 -78 0 -77 3 +76 7 *
Fa
0  1e-07 3 0

0101000
+75 0 *
Ve
1e-07
106.5 62.08 26
0 0

0101101
*
Ve
1e-07
106.5 62.08 1.5
0 0

0101101
*
Ed
 1e-07 1 1 0
1  8 0 0 24.5
2  15 6 0 0 24.5
2  16 7 0 0 24.5
0

0101000
+73 0 -72 0 *
Ed
 1e-07 1 1 0
1  9 0 0 98.5
2  17 6 4 0 98.5
2  18 4 5 0 98.5
0

0101000
+80 4 -73 4 *
Ed
 1e-07 1 1 0
1  10 0 0 98.5
2  19 6 8 0 98.5
2  20 5 5 0 98.5
0

0101000
+79 8 -72 8 *
Wi

0101000
+78 0 -71 0 -70 3 +69 7 *
Fa
0  1e-07 6 0

0101000
+68 0 *
Ve
0.0001
106.5 56 26
0 0

0101101
*
Ve
0.0001
106.5 56 1.5
0 0

0101101
*
Ed
 1e-07 1 1 0
1  11 0 0 24.5
2  21 7 0 0 24.5
2  22 8 0 0 24.5
0

0101000
+66 0 -65 0 *
Ed
 1e-07 1 1 0
1  12 0 0 6.08000000000004
2  23 7 4 0 6.08000000000004
2  24 4 5 0 6.08000000000004
0

0101000
+73 4 -66 4 *
Ed
 1e-07 1 1 0
1  13 0 0 6.08000000000004
2  25 7 8 0 6.08000000000004
2  26 5 5 0 6.08000000000004
0

0101000
+72 8 -65 8 *
Wi

0101000
+71 0 -64 0 -63 3 +62 7 *
Fa
0  1e-07 7 0

0101000
+61 0 *
Ve
1e-07
112.58 56 26
0 0

0101101
*
Ve
1e-07
112.58 56 1.5
0 0

0101101
*
Ed
 1e-07 1 1 0
1  14 0 0 24.5
2  27 8 0 0 24.5
2  28 9 0 0 24.5
0

0101000
+59 0 -58 0 *
Ed
 1e-07 1 1 0
1  15 0 0 6.08
2  29 8 4 0 6.08
2  30 4 5 0 6.08
0

0101000
+66 4 -59 4 *
Ed
 1e-07 1 1 0
1  16 0 0 6.08
2  31 8 8 0 6.08
2  32 5 5 0 6.08
0

0101000
+65 8 -58 8 *
Wi

0101000
+64 0 -57 0 -56 3 +55 7 *
Fa
0  1e-07 8 0

0101000
+54 0 *
Ve
1e-07
112.58 8 26
0 0

0101101
*
Ve
1e-07
112.58 8 1.5
0 0

0101101
*
Ed
 1e-07 1 1 0
1  17 0 0 24.5
2  33 9 0 0 24.5
2  34 10 0 0 24.5
0

0101000
+52 0 -51 0 *
Ed
 1e-07 1 1 0
1  18 0 0 48
2  35 9 4 0 48
2  36 4 5 0 48
0

0101000
+59 4 -52 4 *
Ed
 1e-07 1 1 0
1  19 0 0 48
2  37 9 8 0 48
2  38 5 5 0 48
0

0101000
+58 8 -51 8 *
Wi

0101000
+57 0 -50 0 -49 3 +48 7 *
Fa
0  1e-07 9 0

0101000
+47 0 *
Ve
1e-07
106.5 8 26
0 0

0101101
*
Ve
1e-07
106.5 8 1.5
0 0

0101101
*
Ed
 1e-07 1 1 0
1  20 0 0 24.5
2  39 10 0 0 24.5
2  40 11 0 0 24.5
0

0101000
+45 0 -44 0 *
Ed
 1e-07 1 1 0
1  21 0 0 6.08
2  41 10 4 0 6.08
2  42 4 5 0 6.08
0

0101000
+52 4 -45 4 *
Ed
 1e-07 1 1 0
1  22 0 0 6.08
2  43 10 8 0 6.08
2  44 5 5 0 6.08
0

0101000
+51 8 -44 8 *
Wi

0101000
+50 0 -43 0 -42 3 +41 7 *
Fa
0  1e-07 10 0

0101000
+40 0 *
Ve
1e-07
106.5 1.91999999999996 26
0 0

0101101
*
Ve
1e-07
106.5 1.91999999999996 1.5
0 0

0101101
*
Ed
 1e-07 1 1 0
1  23 0 0 24.5
2  45 11 0 0 24.5
2  46 12 0 0 24.5
0

0101000
+38 0 -37 0 *
Ed
 1e-07 1 1 0
1  24 0 0 6.08000000000004
2  47 11 4 0 6.08000000000004
2  48 4 5 0 6.08000000000004
0

0101000
+45 4 -38 4 *
Ed
 1e-07 1 1 0
1  25 0 0 6.08000000000004
2  49 11 8 0 6.08000000000004
2  50 5 5 0 6.08000000000004
0

0101000
+44 8 -37 8 *
Wi

0101000
+43 0 -36 0 -35 3 +34 7 *
Fa
0  1e-07 11 0

0101000
+33 0 *
Ve
1e-07
8 1.91999999999996 26
0 0

0101101
*
Ve
1e-07
8 1.91999999999996 1.5
0 0

0101101
*
Ed
 1e-07 1 1 0
1  26 0 0 24.5
2  51 12 0 0 24.5
2  52 13 0 0 24.5
0

0101000
+31 0 -30 0 *
Ed
 1e-07 1 1 0
1  27 0 0 98.5
2  53 12 4 0 98.5
2  54 4 5 0 98.5
0

0101000
+38 4 -31 4 *
Ed
 1e-07 1 1 0
1  28 0 0 98.5
2  55 12 8 0 98.5
2  56 5 5 0 98.5
0

0101000
+37 8 -30 8 *
Wi

0101000
+36 0 -29 0 -28 3 +27 7 *
Fa
0  1e-07 12 0

0101000
+26 0 *
Ve
0.0001
8 8 26
0 0

0101101
*
Ve
0.0001
8 8 1.5
0 0

0101101
*
Ed
 1e-07 1 1 0
1  29 0 0 24.5
2  57 13 0 0 24.5
2  58 14 0 0 24.5
0

0101000
+24 0 -23 0 *
Ed
 1e-07 1 1 0
1  30 0 0 6.08000000000004
2  59 13 4 0 6.08000000000004
2  60 4 5 0 6.08000000000004
0

0101000
+31 4 -24 4 *
Ed
 1e-07 1 1 0
1  31 0 0 6.08000000000004
2  61 13 8 0 6.08000000000004
2  62 5 5 0 6.08000000000004
0

0101000
+30 8 -23 8 *
Wi

0101000
+29 0 -22 0 -21 3 +20 7 *
Fa
0  1e-07 13 0

0101000
+19 0 *
Ve
1e-07
1.92000000000001 8 26
0 0

0101101
*
Ve
1e-07
1.92000000000001 8 1.5
0 0

0101101
*
Ed
 1e-07 1 1 0
1  32 0 0 24.5
2  63 14 0 0 24.5
2  64 2 0 0 24.5
0

0101000
+17 0 -16 0 *
Ed
 1e-07 1 1 0
1  33 0 0 6.07999999999999
2  65 14 4 0 6.07999999999999
2  66 4 5 0 6.07999999999999
0

0101000
+24 4 -17 4 *
Ed
 1e-07 1 1 0
1  34 0 0 6.07999999999999
2  67 14 8 0 6.07999999999999
2  68 5 5 0 6.07999999999999
0

0101000
+23 8 -16 8 *
Wi

0101000
+22 0 -15 0 -14 3 +13 7 *
Fa
0  1e-07 14 0

0101000
+12 0 *
Ed
 1e-07 1 1 0
1  35 0 0 48
2  69 2 4 0 48
2  70 4 5 0 48
0

0101000
+17 4 -90 4 *
Ed
 1e-07 1 1 0
1  36 0 0 48
2  71 2 8 0 48
2  72 5 5 0 48
0

0101000
+16 8 -89 8 *
Wi

0101000
+15 0 -88 0 -10 3 +9 7 *
Fa
0  1e-07 2 0

0101000
+8 0 *
Wi

0101100
+84 0 +77 0 +70 0 +63 0 +56 0 +49 0 +42 0 +35 0 +28 0 +21 0 
+14 0 +10 0 *
Fa
0  1e-07 4 0

0101000
+6 1 *
Wi

0101100
+83 0 +76 0 +69 0 +62 0 +55 0 +48 0 +41 0 +34 0 +27 0 +20 0 
+13 0 +9 0 *
Fa
0  1e-07 5 0

0101000
+4 1 *
Sh

0101100
+81 0 +74 0 +67 0 +60 0 +53 0 +46 0 +39 0 +32 0 +25 0 +18 0 
+11 0 +7 0 +5 9 -3 10 *
So

1100100
-2 0 *

+1 0 