DBRep_DrawableShape

CASCADE Topology V1, (c) Matra-Datavision
Locations 17
1
              1               0               0               0 
              0               1               0               0 
              0               0               1               0 
1
              1               0               0               0 
              0               1               0               0 
              0               0               1               0 
1
              1               0               0               0 
              0               1               0               0 
              0               0               1               0 
2  2 1 3 -1 0
2  1 -1 3 1 2 -1 0
1
              1               0               0              -0 
              0               1               0               0 
              0               0               1              26 
2  6 1 3 -1 0
2  2 1 6 -1 0
2  3 1 6 -1 0
2  1 -1 3 1 6 -1 0
2  1 -1 0
1
              1               0               0              -0 
              0               1               0              -0 
              0               0               1           -24.5 
2  6 1 3 -1 12 1 0
2  12 -1 3 1 6 -1 0
2  6 -1 0
2  1 -1 12 -1 3 1 6 -1 0
2  3 -1 12 1 0
Curve2ds 96
1 0 0 1 0 
1 0 0 1 0 
1 26 0 0 -1 
1 0 0 0 1 
1 0 -64 1 0 
1 0 0 1 0 
1 0 0 0 -1 
1 0 0 0 1 
1 0 0 0 1 
1 0 0 1 0 
1 0 114.5 1 0 
1 0 0 1 0 
1 26 0 0 1 
1 0 0 1 0 
1 0 64 1 0 
1 26 0 0 1 
1 114.5 0 0 1 
1 26 0 0 -1 
1 106.5 56 1 0 
1 0 0 1 0 
1 106.5 62.080000000000041 0 -1 
1 0 0 1 0 
1 8 62.080000000000041 1 0 
1 0 0 1 0 
1 8 56 0 1 
1 0 0 1 0 
1 1.9200000000000061 56 1 0 
1 0 0 1 0 
1 1.9200000000000061 8 0 1 
1 0 0 1 0 
1 8 8 -1 0 
1 0 0 1 0 
1 8 1.9199999999999591 0 1 
1 0 0 1 0 
1 106.5 1.9199999999999591 -1 0 
1 0 0 1 0 
1 106.5 8 0 -1 
1 0 0 1 0 
1 112.58 8 -1 0 
1 0 0 1 0 
1 112.58 56 0 -1 
1 0 0 1 0 
1 0 0 0 1 
1 0 64 1 0 
1 0 114.5 1 0 
1 0 -64 1 0 
1 114.5 0 0 1 
1 0 0 0 -1 
1 0 0 0 -1 
1 6.0800000000000409 0 0 -1 
1 0 -24.5 1 0 
1 -104.58 0 -1 0 
1 6.0799999999999983 0 0 -1 
1 0 0 0 -1 
1 0 0 0 -1 
1 98.5 0 0 -1 
1 0 -24.5 1 0 
1 -104.58 6.0800000000000409 0 -1 
1 0 0 0 -1 
1 6.0800000000000409 0 0 -1 
1 0 -24.5 1 0 
1 -6.0799999999999939 6.0800000000000409 -1 0 
1 0 0 0 -1 
1 6.0799999999999939 0 0 -1 
1 0 -24.5 1 0 
1 -6.0799999999999939 0 0 1 
1 0 0 0 -1 
1 48 0 0 -1 
1 0 -24.5 1 0 
1 0 0 -1 0 
1 0 0 0 -1 
1 6.0799999999999939 0 0 -1 
1 0 -24.5 1 0 
1 0 -48 0 1 
1 0 0 0 -1 
1 6.0800000000000409 0 0 -1 
1 0 -24.5 1 0 
1 -6.0799999999999939 -48 1 0 
1 0 0 0 -1 
1 98.5 0 0 -1 
1 0 -24.5 1 0 
1 -6.0799999999999939 -54.080000000000041 0 1 
1 0 0 0 -1 
1 6.0800000000000409 0 0 -1 
1 0 -24.5 1 0 
1 -104.58 -54.080000000000041 1 0 
1 0 0 0 -1 
1 6.0799999999999983 0 0 -1 
1 0 -24.5 1 0 
1 -104.58 -48 0 -1 
1 0 0 0 -1 
1 48 0 0 -1 
1 0 -24.5 1 0 
1 -110.66 -48 1 0 
1 0 -24.5 1 0 
1 -110.66 0 0 -1 
Curves 48
1 0 0 0 0 0 1 
1 0 0 26 -0 1 0 
1 0 64 0 0 0 1 
1 0 0 0 -0 1 0 
1 0 0 0 1 0 -0 
1 114.5 0 0 0 0 1 
1 0 0 26 1 0 -0 
1 0 64 26 1 0 -0 
1 114.5 0 26 0 1 0 
1 106.5 56 0 1 0 0 
1 106.5 62.080000000000041 0 0 -1 0 
1 8 62.080000000000041 0 1 0 0 
1 8 56 0 0 1 0 
1 1.9200000000000061 56 0 1 0 0 
1 1.9200000000000061 8 0 0 1 0 
1 8 8 0 -1 0 0 
1 8 1.9199999999999591 0 0 1 0 
1 106.5 1.9199999999999591 0 -1 0 0 
1 106.5 8 0 0 -1 0 
1 112.58 8 0 -1 0 0 
1 112.58 56 0 0 -1 0 
1 0 64 0 1 0 -0 
1 114.5 64 0 0 0 1 
1 114.5 0 0 -0 1 0 
1 106.5 56 26 -0 -0 -1 
1 106.5 56 0 1 0 0 
1 112.58 56 26 -0 -0 -1 
1 106.5 62.080000000000041 26 -0 -0 -1 
1 106.5 62.080000000000041 0 0 -1 0 
1 8 62.080000000000041 26 -0 -0 -1 
1 8 62.080000000000041 0 1 0 0 
1 8 56 26 -0 -0 -1 
1 8 56 0 0 1 0 
1 1.9200000000000061 56 26 -0 -0 -1 
1 1.9200000000000061 56 0 1 0 0 
1 1.9200000000000061 8 26 -0 -0 -1 
1 1.9200000000000061 8 0 0 1 0 
1 8 8 26 -0 -0 -1 
1 8 8 0 -1 0 0 
1 8 1.9199999999999591 26 -0 -0 -1 
1 8 1.9199999999999591 0 0 1 0 
1 106.5 1.9199999999999591 26 -0 -0 -1 
1 106.5 1.9199999999999591 0 -1 0 0 
1 106.5 8 26 -0 -0 -1 
1 106.5 8 0 0 -1 0 
1 112.58 8 26 -0 -0 -1 
1 112.58 8 0 -1 0 0 
1 112.58 56 0 0 -1 0 
Polygon3D 0
PolygonOnTriangulations 0
Surfaces 19
1 0 0 0 1 0 -0 0 0 1 0 -1 0 
1 0 0 0 -0 1 0 0 0 1 1 0 -0 
1 0 0 26 0 0 1 1 0 -0 -0 1 0 
1 0 64 0 -0 1 0 0 0 1 1 0 -0 
1 0 0 0 0 0 1 1 0 -0 -0 1 0 
1 114.5 0 0 1 0 -0 0 0 1 0 -1 0 
1 106.5 56 26 0 -1 0 1 0 0 -0 0 1 
1 106.5 62.080000000000041 26 -1 0 0 0 -1 0 0 0 1 
1 8 62.080000000000041 26 0 -1 0 1 0 0 -0 0 1 
1 8 56 26 1 0 0 -0 1 0 0 -0 1 
1 1.9200000000000061 56 26 0 -1 0 1 0 0 -0 0 1 
1 1.9200000000000061 8 26 1 0 0 -0 1 0 0 -0 1 
1 8 8 26 0 1 -0 -1 0 0 0 0 1 
1 8 1.9199999999999591 26 1 0 0 -0 1 0 0 -0 1 
1 106.5 1.9199999999999591 26 0 1 -0 -1 0 0 0 0 1 
1 106.5 8 26 -1 0 0 0 -1 0 0 0 1 
1 112.58 8 26 0 1 -0 -1 0 0 0 0 1 
1 112.58 56 26 -1 0 0 0 -1 0 0 0 1 
1 1.9200000000000061 56 26 0 0 -1 -1 0 -0 0 1 0 
Triangulations 0

TShapes 121
Ve
1e-07
0 0 26
0 0

0101101
*
Ve
1e-07
0 0 0
0 0

0101101
*
Ed
 1e-07 1 1 0
1  1 0 0 26
2  1 1 0 0 26
2  2 2 0 0 26
0

0101000
-121 5 +120 5 *
Ve
1e-07
0 64 26
0 0

0101101
*
Ed
 1e-07 1 1 0
1  2 0 0 64
2  3 1 0 0 64
2  4 3 0 0 64
0

0101000
-118 5 +121 5 *
Ve
1e-07
0 64 0
0 0

0101101
*
Ed
 1e-07 1 1 0
1  3 0 0 26
2  5 1 0 0 26
2  6 4 0 0 26
0

0101000
-118 5 +116 5 *
Ed
 1e-07 1 1 0
1  4 0 0 64
2  7 1 0 0 64
2  8 5 0 0 64
0

0101000
-116 5 +120 5 *
Wi

0101000
-119 0 -117 0 +115 0 +114 0 *
Fa
0  1e-07 1 0

0101000
+113 0 *
Ve
1e-07
114.5 0 0
0 0

0101101
*
Ed
 1e-07 1 1 0
1  5 0 0 114.5
2  9 2 0 0 114.5
2  10 5 0 0 114.5
0

0101000
-111 5 +120 5 *
Ve
1e-07
114.5 0 26
0 0

0101101
*
Ed
 1e-07 1 1 0
1  6 0 0 26
2  11 2 0 0 26
2  12 6 0 0 26
0

0101000
-109 5 +111 5 *
Ed
 1e-07 1 1 0
1  7 0 0 114.5
2  13 2 0 0 114.5
2  14 3 0 0 114.5
0

0101000
-109 5 +121 5 *
Wi

0101000
-110 0 -108 0 +107 0 +119 0 *
Fa
0  1e-07 2 0

0101000
+106 0 *
Ve
1e-07
114.5 64 26
0 0

0101101
*
Ed
 1e-07 1 1 0
1  8 0 0 114.5
2  15 3 0 0 114.5
2  16 4 0 0 114.5
0

0101000
-104 5 +118 5 *
Ed
 1e-07 1 1 0
1  9 0 0 64
2  17 3 0 0 64
2  18 6 0 0 64
0

0101000
-104 5 +109 5 *
Wi

0101000
-117 4 -103 4 +107 4 +102 4 *
Ve
0.0001
106.5 56 26
0 0

0101101
*
Ve
1e-07
112.58 56 26
0 0

0101101
*
Ed
 1e-07 1 1 0
1  10 0 0 6.08
2  19 3 8 0 6.08
2  20 7 9 0 6.08
0

0101000
+100 10 -99 10 *
Ve
1e-07
106.5 62.08 26
0 0

0101101
*
Ed
 1e-07 1 1 0
1  11 0 0 6.08000000000004
2  21 3 8 0 6.08000000000004
2  22 8 9 0 6.08000000000004
0

0101000
+97 10 -100 10 *
Ve
1e-07
8 62.08 26
0 0

0101101
*
Ed
 1e-07 1 1 0
1  12 0 0 98.5
2  23 3 8 0 98.5
2  24 9 9 0 98.5
0

0101000
+95 10 -97 10 *
Ve
1e-07
8 56 26
0 0

0101101
*
Ed
 1e-07 1 1 0
1  13 0 0 6.08000000000004
2  25 3 8 0 6.08000000000004
2  26 10 9 0 6.08000000000004
0

0101000
+93 10 -95 10 *
Ve
1e-07
1.92000000000001 56 26
0 0

0101101
*
Ed
 1e-07 1 1 0
1  14 0 0 6.07999999999999
2  27 3 8 0 6.07999999999999
2  28 11 9 0 6.07999999999999
0

0101000
+91 10 -93 10 *
Ve
1e-07
1.92000000000001 8 26
0 0

0101101
*
Ed
 1e-07 1 1 0
1  15 0 0 48
2  29 3 8 0 48
2  30 12 9 0 48
0

0101000
+89 10 -91 10 *
Ve
0.0001
8 8 26
0 0

0101101
*
Ed
 1e-07 1 1 0
1  16 0 0 6.07999999999999
2  31 3 8 0 6.07999999999999
2  32 13 9 0 6.07999999999999
0

0101000
+87 10 -89 10 *
Ve
1e-07
8 1.91999999999996 26
0 0

0101101
*
Ed
 1e-07 1 1 0
1  17 0 0 6.08000000000004
2  33 3 8 0 6.08000000000004
2  34 14 9 0 6.08000000000004
0

0101000
+85 10 -87 10 *
Ve
1e-07
106.5 1.91999999999996 26
0 0

0101101
*
Ed
 1e-07 1 1 0
1  18 0 0 98.5
2  35 3 8 0 98.5
2  36 15 9 0 98.5
0

0101000
+83 10 -85 10 *
Ve
1e-07
106.5 8 26
0 0

0101101
*
Ed
 1e-07 1 1 0
1  19 0 0 6.08000000000004
2  37 3 8 0 6.08000000000004
2  38 16 9 0 6.08000000000004
0

0101000
+81 10 -83 10 *
Ve
1e-07
112.58 8 26
0 0

0101101
*
Ed
 1e-07 1 1 0
1  20 0 0 6.08
2  39 3 8 0 6.08
2  40 17 9 0 6.08
0

0101000
+79 10 -81 10 *
Ed
 1e-07 1 1 0
1  21 0 0 48
2  41 3 8 0 48
2  42 18 9 0 48
0

0101000
+99 10 -79 10 *
Wi

0101000
+98 7 +96 7 +94 7 +92 7 +90 7 +88 7 +86 7 +84 7 +82 7 +80 7 
+78 7 +77 7 *
Fa
0  1e-07 3 4

0101000
+101 0 +76 0 *
Ve
1e-07
114.5 64 0
0 0

0101101
*
Ed
 1e-07 1 1 0
1  22 0 0 114.5
2  43 4 0 0 114.5
2  44 5 0 0 114.5
0

0101000
-74 5 +116 5 *
Ed
 1e-07 1 1 0
1  23 0 0 26
2  45 4 0 0 26
2  46 6 0 0 26
0

0101000
-104 5 +74 5 *
Wi

0101000
-73 0 -72 0 +103 0 +115 0 *
Fa
0  1e-07 4 0

0101000
+71 0 *
Ed
 1e-07 1 1 0
1  24 0 0 64
2  47 5 0 0 64
2  48 6 0 0 64
0

0101000
-74 5 +111 5 *
Wi

0101000
-114 0 -73 0 +69 0 +110 0 *
Fa
0  1e-07 5 0

0101000
+68 0 *
Wi

0101000
-108 0 -102 0 +72 0 +69 0 *
Fa
0  1e-07 6 0

0101000
+66 0 *
Ve
0.0001
106.5 56 1.5
0 0

0101101
*
Ed
 1e-07 1 1 0
1  25 0 0 24.5
2  49 7 0 0 24.5
2  50 8 0 0 24.5
0

0101000
+100 11 -64 11 *
Ve
1e-07
112.58 56 1.5
0 0

0101101
*
Ed
 1e-07 1 1 0
1  26 0 0 6.08
2  51 7 14 0 6.08
2  52 19 15 0 6.08
0

0101000
+64 16 -62 16 *
Ed
 1e-07 1 1 0
1  27 0 0 24.5
2  53 7 0 0 24.5
2  54 18 0 0 24.5
0

0101000
+99 11 -62 11 *
Wi

0101000
+63 0 -98 7 +61 13 -60 0 *
Fa
0  1e-07 7 0

0101000
+59 0 *
Ve
1e-07
106.5 62.08 1.5
0 0

0101101
*
Ed
 1e-07 1 1 0
1  28 0 0 24.5
2  55 8 0 0 24.5
2  56 9 0 0 24.5
0

0101000
+97 11 -57 11 *
Ed
 1e-07 1 1 0
1  29 0 0 6.08000000000004
2  57 8 14 0 6.08000000000004
2  58 19 15 0 6.08000000000004
0

0101000
+57 16 -64 16 *
Wi

0101000
+56 0 -96 7 +55 13 -63 0 *
Fa
0  1e-07 8 0

0101000
+54 0 *
Ve
1e-07
8 62.08 1.5
0 0

0101101
*
Ed
 1e-07 1 1 0
1  30 0 0 24.5
2  59 9 0 0 24.5
2  60 10 0 0 24.5
0

0101000
+95 11 -52 11 *
Ed
 1e-07 1 1 0
1  31 0 0 98.5
2  61 9 14 0 98.5
2  62 19 15 0 98.5
0

0101000
+52 16 -57 16 *
Wi

0101000
+51 0 -94 7 +50 13 -56 0 *
Fa
0  1e-07 9 0

0101000
+49 0 *
Ve
1e-07
8 56 1.5
0 0

0101101
*
Ed
 1e-07 1 1 0
1  32 0 0 24.5
2  63 10 0 0 24.5
2  64 11 0 0 24.5
0

0101000
+93 11 -47 11 *
Ed
 1e-07 1 1 0
1  33 0 0 6.08000000000004
2  65 10 14 0 6.08000000000004
2  66 19 15 0 6.08000000000004
0

0101000
+47 16 -52 16 *
Wi

0101000
+46 0 -92 7 +45 13 -51 0 *
Fa
0  1e-07 10 0

0101000
+44 0 *
Ve
1e-07
1.92000000000001 56 1.5
0 0

0101101
*
Ed
 1e-07 1 1 0
1  34 0 0 24.5
2  67 11 0 0 24.5
2  68 12 0 0 24.5
0

0101000
+91 11 -42 11 *
Ed
 1e-07 1 1 0
1  35 0 0 6.07999999999999
2  69 11 14 0 6.07999999999999
2  70 19 15 0 6.07999999999999
0

0101000
+42 16 -47 16 *
Wi

0101000
+41 0 -90 7 +40 13 -46 0 *
Fa
0  1e-07 11 0

0101000
+39 0 *
Ve
1e-07
1.92000000000001 8 1.5
0 0

0101101
*
Ed
 1e-07 1 1 0
1  36 0 0 24.5
2  71 12 0 0 24.5
2  72 13 0 0 24.5
0

0101000
+89 11 -37 11 *
Ed
 1e-07 1 1 0
1  37 0 0 48
2  73 12 14 0 48
2  74 19 15 0 48
0

0101000
+37 16 -42 16 *
Wi

0101000
+36 0 -88 7 +35 13 -41 0 *
Fa
0  1e-07 12 0

0101000
+34 0 *
Ve
0.0001
8 8 1.5
0 0

0101101
*
Ed
 1e-07 1 1 0
1  38 0 0 24.5
2  75 13 0 0 24.5
2  76 14 0 0 24.5
0

0101000
+87 11 -32 11 *
Ed
 1e-07 1 1 0
1  39 0 0 6.07999999999999
2  77 13 14 0 6.07999999999999
2  78 19 15 0 6.07999999999999
0

0101000
+32 16 -37 16 *
Wi

0101000
+31 0 -86 7 +30 13 -36 0 *
Fa
0  1e-07 13 0

0101000
+29 0 *
Ve
1e-07
8 1.91999999999996 1.5
0 0

0101101
*
Ed
 1e-07 1 1 0
1  40 0 0 24.5
2  79 14 0 0 24.5
2  80 15 0 0 24.5
0

0101000
+85 11 -27 11 *
Ed
 1e-07 1 1 0
1  41 0 0 6.08000000000004
2  81 14 14 0 6.08000000000004
2  82 19 15 0 6.08000000000004
0

0101000
+27 16 -32 16 *
Wi

0101000
+26 0 -84 7 +25 13 -31 0 *
Fa
0  1e-07 14 0

0101000
+24 0 *
Ve
1e-07
106.5 1.91999999999996 1.5
0 0

0101101
*
Ed
 1e-07 1 1 0
1  42 0 0 24.5
2  83 15 0 0 24.5
2  84 16 0 0 24.5
0

0101000
+83 11 -22 11 *
Ed
 1e-07 1 1 0
1  43 0 0 98.5
2  85 15 14 0 98.5
2  86 19 15 0 98.5
0

0101000
+22 16 -27 16 *
Wi

0101000
+21 0 -82 7 +20 13 -26 0 *
Fa
0  1e-07 15 0

0101000
+19 0 *
Ve
1e-07
106.5 8 1.5
0 0

0101101
*
Ed
 1e-07 1 1 0
1  44 0 0 24.5
2  87 16 0 0 24.5
2  88 17 0 0 24.5
0

0101000
+81 11 -17 11 *
Ed
 1e-07 1 1 0
1  45 0 0 6.08000000000004
2  89 16 14 0 6.08000000000004
2  90 19 15 0 6.08000000000004
0

0101000
+17 16 -22 16 *
Wi

0101000
+16 0 -80 7 +15 13 -21 0 *
Fa
0  1e-07 16 0

0101000
+14 0 *
Ve
1e-07
112.58 8 1.5
0 0

0101101
*
Ed
 1e-07 1 1 0
1  46 0 0 24.5
2  91 17 0 0 24.5
2  92 18 0 0 24.5
0

0101000
+79 11 -12 11 *
Ed
 1e-07 1 1 0
1  47 0 0 6.08
2  93 17 14 0 6.08
2  94 19 15 0 6.08
0

0101000
+12 16 -17 16 *
Wi

0101000
+11 0 -78 7 +10 13 -16 0 *
Fa
0  1e-07 17 0

0101000
+9 0 *
Ed
 1e-07 1 1 0
1  48 0 0 48
2  95 18 14 0 48
2  96 19 15 0 48
0

0101000
+62 16 -12 16 *
Wi

0101000
+60 0 -77 7 +7 13 -11 0 *
Fa
0  1e-07 18 0

0101000
+6 0 *
Wi

0101100
+40 0 +45 0 +50 0 +55 0 +61 0 +7 0 +10 0 +15 0 +20 0 +25 0 
+30 0 +35 0 *
Fa
0  1e-07 19 0

0101000
+4 6 *
Sh

0101100
-112 4 -105 4 +75 0 +70 4 -67 4 +65 4 +58 0 +53 0 +48 0 +43 0 
+38 0 +33 0 +28 0 +23 0 +18 0 +13 0 +8 0 +5 0 -3 17 *
So

0100000
+2 0 *

+1 1 