DBRep_DrawableShape

CASCADE Topology V1, (c) Matra-Datavision
Locations 46
1
              1               0               0               0 
              0               1               0               0 
              0               0               1               0 
1
              1               0               0               0 
              0               1               0               0 
              0               0               1               0 
1
              1               0               0               0 
              0               1               0               0 
              0               0               1               0 
1
              1               0               0               0 
              0               1               0               0 
              0               0               1               0 
1
              1               0               0               0 
              0               1               0               0 
              0               0               1               0 
2  2 1 3 -1 4 1 5 1 0
2  5 -1 4 -1 3 1 2 -1 0
2  1 -1 5 -1 4 -1 3 1 2 -1 0
2  1 -1 0
2  2 1 3 -1 4 1 0
2  5 -1 0
1
              1               0               0               5 
              0               1               0               5 
              0               0               1              20 
1
              1               0               0           104.5 
              0               1               0               0 
              0               0               1               0 
1
              1               0               0               0 
              0               1               0               0 
              0               0               1               0 
2  12 1 13 1 14 1 0
2  2 1 3 -1 4 1 14 -1 13 -1 12 -1 0
2  1 -1 5 -1 14 -1 13 -1 12 -1 0
2  12 1 14 1 0
2  2 1 3 -1 4 1 14 -1 12 -1 0
2  1 -1 5 -1 14 -1 12 -1 0
1
              1               0               0               0 
              0               1               0              54 
              0               0               1               0 
2  12 1 21 1 14 1 0
2  2 1 3 -1 4 1 14 -1 21 -1 12 -1 0
2  1 -1 5 -1 14 -1 21 -1 12 -1 0
1
              1               0               0           104.5 
              0               1               0              54 
              0               0               1               0 
2  12 1 25 1 14 1 0
2  2 1 3 -1 4 1 14 -1 25 -1 12 -1 0
2  1 -1 5 -1 14 -1 25 -1 12 -1 0
1
              1               0               0              -0 
              0               1               0               0 
              0               0               1              26 
2  29 1 3 -1 4 1 5 1 0
2  2 1 29 -1 0
2  3 1 29 -1 0
2  1 -1 5 -1 4 -1 3 1 29 -1 0
2  4 1 5 1 0
2  5 -1 4 -1 0
1
              1               0               0              -0 
              0               1               0              -0 
              0               0               1           -24.5 
2  29 1 3 -1 36 1 4 1 5 1 0
2  36 -1 3 1 29 -1 0
2  29 -1 0
2  1 -1 5 -1 4 -1 36 -1 3 1 29 -1 0
2  3 -1 36 1 4 1 5 1 0
2  12 1 13 1 14 1 5 1 0
2  12 1 14 1 5 1 0
2  12 1 21 1 14 1 5 1 0
2  12 1 25 1 14 1 5 1 0
2  5 -1 4 -1 36 -1 3 1 0
Curve2ds 248
1 26 0 0 -1 
1 0 0 0 1 
1 0 -4.9999999999999991 1 0 
1 0 0 0 1 
1 0 -59 1 0 
1 0 0 0 1 
1 1.4999999999999998 0 0 -1 
1 0 0 0 1 
2 4.9999999999999991 4.9999999999999991 0 -1 1 0 5
1 -4.7123889803846897 26 1 0 
2 4.9999999999999991 59 0 -1 -1 -0 5
1 -1.5707963267948966 26 1 0 
1 0 0 1 0 
1 26 0 0 1 
1 0 64 1 0 
1 26 0 0 1 
2 109.5 4.9999999999999991 0 -1 1 0 5
1 0 26 1 0 
2 109.5 59 0 -1 -1 -0 5
1 -3.1415926535897931 26 1 0 
1 114.5 0 0 1 
1 26 0 0 -1 
2 109.5 5 1 0 -0 1 1.75
1 0 6 1 0 
2 5 5 1 0 -0 1 1.75
1 0 6 1 0 
2 5 59 1 0 -0 1 1.75
1 0 6 1 0 
2 109.5 59 1 0 -0 1 1.75
1 0 6 1 0 
1 106.5 56 1 0 
1 0 0 1 0 
2 109.5 59 0 1 1 -0 3
1 -3.1415926535897931 0 1 0 
2 111.08 54.5 0 1 1 -0 1.5
1 0 -0 1 0 
1 106.5 62.080000000000041 0 -1 
1 0 0 1 0 
1 112.58 56 0 -1 
1 0 0 1 0 
2 105 60.580000000000041 0 1 -1 0 1.5
1 -4.7123889803846897 0 1 0 
2 111.08 9.5 0 1 1 -0 1.5
1 -1.5707963267948966 -0 1 0 
1 8 62.080000000000041 1 0 
1 0 0 1 0 
1 112.58 8 -1 0 
1 0 0 1 0 
2 9.5 60.580000000000041 0 1 -1 0 1.5
1 0 -0 1 0 
2 109.5 5 0 1 -1 0 3
1 0 -0 1 0 
1 8 56 0 1 
1 0 0 1 0 
1 106.5 8 0 -1 
1 0 0 1 0 
2 5 59 0 1 1 -0 3
1 -1.5707963267948966 -0 1 0 
2 105.5 2.9199999999999591 0 1 1 -0 1
1 -1.5707963267948966 -0 1 0 
1 1.9200000000000061 56 1 0 
1 0 0 1 0 
1 106.5 1.9199999999999591 -1 0 
1 0 0 1 0 
2 3.4200000000000061 54.5 0 1 -1 0 1.5
1 0 -0 1 0 
2 9.5 3.4199999999999591 0 1 1 -0 1.5
1 -3.1415926535897931 0 1 0 
1 1.9200000000000061 8 0 1 
1 0 0 1 0 
1 8 1.9199999999999591 0 1 
1 0 0 1 0 
2 3.4200000000000061 9.5 0 1 -1 0 1.5
1 -1.5707963267948966 -0 1 0 
2 5 5 0 1 -1 0 3
1 -4.7123889803846897 0 1 0 
1 8 8 -1 0 
1 0 0 1 0 
1 0 1.5 1 0 
1 0 6.2831853071795862 1 0 
1 1.5707963267948966 0 0 1 
1 0 4.9999999999999991 1 0 
1 0 1.5 1 0 
1 0 6.2831853071795862 1 0 
1 1.5707963267948966 0 0 1 
1 0 4.9999999999999991 1 0 
8 4.7123889803846897 6.2831853071795862
1 6.2831853071795862 4.9999999999999991 -1 -0 
8 4.7123889803846897 6.2831853071795862
1 0 0 0 1 
1 1.5707963267948966 0 0 1 
1 1.4999999999999998 0 0 1 
8 4.7123889803846897 6.2831853071795862
1 6.2831853071795862 59 -1 -0 
8 4.7123889803846897 6.2831853071795862
1 0 0 0 1 
1 0 109.5 1 0 
1 0 0 0 1 
1 1.4999999999999998 0 0 1 
1 0 0 0 1 
1 0 109.5 1 0 
1 0 0 0 1 
1 1.4999999999999998 0 0 1 
1 0 0 0 1 
1 1.5707963267948966 1.5 -1 -0 
1 0 6.2831853071795862 1 0 
1 1.5707963267948966 0 0 1 
1 0 -4.9999999999999991 1 0 
1 1.5707963267948966 1.5 -1 -0 
1 0 6.2831853071795862 1 0 
1 1.5707963267948966 0 0 1 
1 0 -59 1 0 
1 1.4999999999999998 0 0 -1 
1 1.5707963267948966 0 0 1 
1 6.2831853071795862 -0 0 1 
1 0 -0 0 1 
1 0 0 1 0 
2 0 0 1 0 -0 1 1.75
1 6.2831853071795862 -0 0 1 
1 0 -0 0 1 
1 0 0 1 0 
2 0 0 1 0 -0 1 1.75
1 6.2831853071795862 -0 0 1 
1 0 -0 0 1 
1 0 0 1 0 
2 0 0 1 0 -0 1 1.75
1 6.2831853071795862 -0 0 1 
1 0 -0 0 1 
1 0 0 1 0 
2 0 0 1 0 -0 1 1.75
1 3 0 -0 -1 
1 0 0 0 1 
1 4.5799999999999983 0 -0 -1 
1 0 0 0 1 
1 0 -24.5 1 0 
1 -104.58 0 -1 0 
1 1.5707963267948966 0 0 1 
1 3.0800000000000409 0 0 -1 
1 -3.1415926535897931 24.5 1 0 
2 -107.58 3 0 1 -1 0 3
1 1.5707963267948966 0 0 1 
1 1.5 0 0 -1 
1 0 24.5 1 0 
2 -109.16 -1.5 0 1 -1 0 1.5
1 1.5 0 0 -1 
1 0 0 0 1 
1 0 -24.5 1 0 
1 -104.58 6.0800000000000409 0 -1 
1 46.5 0 0 -1 
1 0 0 0 1 
1 0 -24.5 1 0 
1 -110.66 0 0 -1 
1 1.5707963267948966 0 0 1 
1 97 0 -0 -1 
1 -4.7123889803846897 24.5 1 0 
2 -103.08 4.5800000000000409 0 1 1 -0 1.5
1 1.5707963267948966 0 0 1 
1 1.5 0 0 -1 
1 -1.5707963267948966 24.5 1 0 
2 -109.16 -46.5 0 1 -1 0 1.5
1 1.5 0 -0 -1 
1 0 0 0 1 
1 0 -24.5 1 0 
1 -6.0799999999999939 6.0800000000000409 -1 0 
1 3.0799999999999983 0 0 -1 
1 0 0 0 1 
1 0 -24.5 1 0 
1 -110.66 -48 1 0 
1 1.5707963267948966 0 0 1 
1 4.5800000000000409 0 -0 -1 
1 0 24.5 1 0 
2 -7.5799999999999939 4.5800000000000409 0 1 1 -0 1.5
1 1.5707963267948966 0 0 1 
1 3 0 0 -1 
1 0 24.5 1 0 
2 -107.58 -51 0 1 1 -0 3
1 3 0 -0 -1 
1 0 0 0 1 
1 0 -24.5 1 0 
1 -6.0799999999999939 0 0 1 
1 5.0800000000000409 0 0 -1 
1 0 0 0 1 
1 0 -24.5 1 0 
1 -104.58 -48 0 -1 
1 1.5707963267948966 0 0 1 
1 3.0799999999999939 0 -0 -1 
1 -1.5707963267948966 24.5 1 0 
2 -3.0799999999999939 3 0 1 -1 0 3
1 1.5707963267948966 0 0 1 
1 1 0 0 -1 
1 -1.5707963267948966 24.5 1 0 
2 -103.58 -53.080000000000041 0 1 -1 0 1
1 1.5 0 -0 -1 
1 0 0 0 1 
1 0 -24.5 1 0 
1 0 0 -1 0 
1 97 0 0 -1 
1 0 0 0 1 
1 0 -24.5 1 0 
1 -104.58 -54.080000000000041 1 0 
1 1.5707963267948966 0 0 1 
1 46.5 0 -0 -1 
1 0 24.5 1 0 
2 -1.5 -1.5 0 1 1 -0 1.5
1 1.5707963267948966 0 0 1 
1 1.5 0 -0 -1 
1 -3.1415926535897913 24.5 1 0 
2 -7.5799999999999939 -52.580000000000041 0 1 -1 0 1.5
1 1.5 0 -0 -1 
1 0 0 0 1 
1 0 -24.5 1 0 
1 0 -48 0 1 
1 3.0800000000000409 0 -0 -1 
1 0 0 0 1 
1 0 -24.5 1 0 
1 -6.0799999999999939 -54.080000000000041 0 1 
1 1.5707963267948966 0 0 1 
1 4.5799999999999939 0 0 -1 
1 -1.5707963267948966 24.5 1 0 
2 -1.5 -46.5 0 1 1 -0 1.5
1 1.5707963267948966 0 0 1 
1 3 0 0 -1 
1 -4.7123889803846897 24.5 1 0 
2 -3.0799999999999939 -51 0 1 1 -0 3
1 0 -24.5 1 0 
1 -6.0799999999999939 -48 1 0 
1 0 4.7123889803846897 1 0 
2 4.9999999999999991 4.9999999999999991 -1 0 -0 -1 3.5
8 4.7123889803846897 6.2831853071795862
1 1.5707963267948966 0 0 1 
8 4.7123889803846897 6.2831853071795862
1 6.2831853071795862 4.9999999999999991 -1 -0 
1 0 4.7123889803846897 1 0 
2 4.9999999999999991 59 -1 0 0 1 3.5
8 4.7123889803846897 6.2831853071795862
1 1.5707963267948966 0 0 1 
8 4.7123889803846897 6.2831853071795862
1 6.2831853071795862 4.9999999999999991 -1 -0 
1 0 1.4999999999999998 1 0 
1 1.5707963267948966 0 0 1 
1 0 62.5 1 0 
1 1.5707963267948966 0 0 1 
2 109.5 4.9999999999999991 1 0 0 -1 3.5
1 0 4.7123889803846897 1 0 
2 109.5 59 1 0 -0 1 3.5
1 0 4.7123889803846897 1 0 
1 113 0 0 1 
1 0 0 0 1 
8 4.7123889803846897 6.2831853071795862
1 6.2831853071795862 109.5 -1 -0 
8 4.7123889803846897 6.2831853071795862
1 1.5707963267948966 0 0 1 
8 4.7123889803846897 6.2831853071795862
1 6.2831853071795862 109.5 -1 -0 
8 4.7123889803846897 6.2831853071795862
1 1.5707963267948966 0 0 1 
8 4.7123889803846897 6.2831853071795862
1 0 0 0 1 
8 4.7123889803846897 6.2831853071795862
1 -4.7123889803846897 4.9999999999999991 1 0 
8 4.7123889803846897 6.2831853071795862
1 0 0 0 1 
8 4.7123889803846897 6.2831853071795862
1 -4.7123889803846897 59 1 0 
Curves 124
1 0 0 26 -0 1 0 
1 -8.8817841970012523e-16 4.9999999999999991 0 0 0 1 
1 -8.8817841970012523e-16 59 0 0 0 1 
1 -2.2204460492503131e-16 0 1.4999999999999998 0 1 0 
8 4.7123889803846897 6.2831853071795862
2 4.9999999999999991 4.9999999999999991 26 0 0 1 0 -1 0 1 0 -0 5
8 1.5707963267948966 3.1415926535897931
2 4.9999999999999991 59 26 -0 -0 -1 0 -1 0 -1 0 0 5
1 0 0 26 1 0 -0 
1 0 64 26 1 0 -0 
8 0 1.5707963267948966
2 109.5 4.9999999999999991 26 0 0 1 0 -1 0 1 0 -0 5
8 3.1415926535897931 4.7123889803846897
2 109.5 59 26 -0 -0 -1 0 -1 0 -1 0 0 5
1 114.5 0 26 0 1 0 
2 0 0 6 0 0 1 1 0 -0 -0 1 0 1.75
2 0 0 6 0 0 1 1 0 -0 -0 1 0 1.75
2 0 0 6 0 0 1 1 0 -0 -0 1 0 1.75
2 0 0 6 0 0 1 1 0 -0 -0 1 0 1.75
1 106.5 56 0 1 0 0 
8 3.1415926535897931 4.7123889803846897
2 109.5 59 26 -0 -0 -1 0 1 -0 1 -0 0 3
8 0 1.5707963267948966
2 111.08 54.5 26 -0 -0 -1 0 1 -0 1 -0 0 1.5
1 106.5 62.080000000000041 0 0 -1 0 
1 112.58 56 0 0 -1 0 
8 4.7123889803846897 6.2831853071795862
2 105 60.580000000000041 26 0 0 1 0 1 -0 -1 0 0 1.5
8 1.5707963267948966 3.1415926535897931
2 111.08 9.5 26 -0 -0 -1 0 1 -0 1 -0 0 1.5
1 8 62.080000000000041 0 1 0 0 
1 112.58 8 0 -1 0 0 
8 0 1.5707963267948966
2 9.5 60.580000000000041 26 0 0 1 0 1 -0 -1 0 0 1.5
8 0 1.5707963267948966
2 109.5 5 26 0 0 1 0 1 -0 -1 0 0 3
1 8 56 0 0 1 0 
1 106.5 8 0 0 -1 0 
8 1.5707963267948966 3.1415926535897931
2 5 59 26 -0 -0 -1 0 1 -0 1 -0 0 3
8 1.5707963267948966 3.1415926535897931
2 105.5 2.9199999999999591 26 -0 -0 -1 0 1 -0 1 -0 0 1
1 1.9200000000000061 56 0 1 0 0 
1 106.5 1.9199999999999591 0 -1 0 0 
8 0 1.5707963267948966
2 3.4200000000000061 54.5 26 0 0 1 0 1 -0 -1 0 0 1.5
8 3.1415926535897931 4.7123889803846897
2 9.5 3.4199999999999591 26 -0 -0 -1 0 1 -0 1 -0 0 1.5
1 1.9200000000000061 8 0 0 1 0 
1 8 1.9199999999999591 0 0 1 0 
8 1.5707963267948966 3.1415926535897931
2 3.4200000000000061 9.5 26 0 0 1 0 1 -0 -1 0 0 1.5
8 4.7123889803846897 6.2831853071795862
2 5 5 26 0 0 1 0 1 -0 -1 0 0 3
1 8 8 0 -1 0 0 
2 4.9999999999999991 4.9999999999999991 1.5 0 0 1 -1 0 0 0 -1 0 5
1 4.9999999999999991 -8.8817841970012523e-16 0 0 0 1 
2 4.9999999999999991 59 1.5 -0 -0 -1 -1 0 0 0 1 -0 5
1 4.9999999999999991 64 0 0 0 1 
2 1.4999999999999991 4.9999999999999991 1.5 0 1 -0 -1 0 0 0 0 1 1.5
1 1.4999999999999998 0 -2.2204460492503131e-16 0 1 0 
2 1.4999999999999991 59 1.5 0 1 -0 -1 0 0 0 0 1 1.5
1 109.5 -8.8817841970012523e-16 0 0 0 1 
1 0 -2.2204460492503131e-16 1.4999999999999998 1 0 0 
1 109.5 64 0 0 0 1 
1 0 64 1.4999999999999998 1 0 0 
2 109.5 4.9999999999999991 1.5 -0 -0 -1 1 0 -0 0 -1 0 5
1 114.5 4.9999999999999991 0 0 0 1 
2 109.5 59 1.5 0 0 1 1 0 -0 -0 1 0 5
1 114.5 59 0 0 0 1 
1 114.5 0 1.4999999999999998 0 1 0 
1 1.75 -4.2862637970157361e-16 0 0 0 1 
2 0 0 0 0 0 1 1 0 -0 -0 1 0 1.75
1 1.75 -4.2862637970157361e-16 0 0 0 1 
2 0 0 0 0 0 1 1 0 -0 -0 1 0 1.75
1 1.75 -4.2862637970157361e-16 0 0 0 1 
2 0 0 0 0 0 1 1 0 -0 -0 1 0 1.75
1 1.75 -4.2862637970157361e-16 0 0 0 1 
2 0 0 0 0 0 1 1 0 -0 -0 1 0 1.75
1 109.5 56 26 -0 -0 -1 
1 111.08 56 26 -0 -0 -1 
1 106.5 56 0 1 0 0 
1 106.5 59 26 -0 -0 -1 
8 3.1415926535897931 4.7123889803846897
2 109.5 59 1.5 -0 -0 -1 0 1 -0 1 -0 0 3
1 112.58 54.5 26 -0 -0 -1 
8 0 1.5707963267948966
2 111.08 54.5 1.5 -0 -0 -1 0 1 -0 1 -0 0 1.5
1 106.5 60.580000000000041 26 -0 -0 -1 
1 106.5 62.080000000000041 0 0 -1 0 
1 112.58 9.5 26 -0 -0 -1 
1 112.58 56 0 0 -1 0 
1 105 62.080000000000041 26 -0 -0 -1 
8 4.7123889803846897 6.2831853071795862
2 105 60.580000000000041 1.5 0 0 1 0 1 -0 -1 0 0 1.5
1 111.08 8 26 -0 -0 -1 
8 1.5707963267948966 3.1415926535897931
2 111.08 9.5 1.5 -0 -0 -1 0 1 -0 1 -0 0 1.5
1 9.5 62.080000000000041 26 -0 -0 -1 
1 8 62.080000000000041 0 1 0 0 
1 109.5 8 26 -0 -0 -1 
1 112.58 8 0 -1 0 0 
1 8 60.580000000000041 26 -0 -0 -1 
8 0 1.5707963267948966
2 9.5 60.580000000000041 1.5 0 0 1 0 1 -0 -1 0 0 1.5
1 106.5 5 26 -0 -0 -1 
8 0 1.5707963267948966
2 109.5 5 1.5 0 0 1 0 1 -0 -1 0 0 3
1 8 59 26 -0 -0 -1 
1 8 56 0 0 1 0 
1 106.5 2.9199999999999591 26 -0 -0 -1 
1 106.5 8 0 0 -1 0 
1 5 56 26 -0 -0 -1 
8 1.5707963267948966 3.1415926535897931
2 5 59 1.5 -0 -0 -1 0 1 -0 1 -0 0 3
1 105.5 1.9199999999999591 26 -0 -0 -1 
8 1.5707963267948966 3.1415926535897931
2 105.5 2.9199999999999591 1.5 -0 -0 -1 0 1 -0 1 -0 0 1
1 3.4200000000000061 56 26 -0 -0 -1 
1 1.9200000000000061 56 0 1 0 0 
1 9.5 1.9199999999999591 26 -0 -0 -1 
1 106.5 1.9199999999999591 0 -1 0 0 
1 1.9200000000000061 54.5 26 -0 -0 -1 
8 0 1.5707963267948966
2 3.4200000000000061 54.5 1.5 0 0 1 0 1 -0 -1 0 0 1.5
1 8 3.4199999999999591 26 -0 -0 -1 
8 3.1415926535897918 4.7123889803846897
2 9.5 3.4199999999999591 1.5 -0 -0 -1 0 1 -0 1 -0 0 1.5
1 1.9200000000000061 9.5 26 -0 -0 -1 
1 1.9200000000000061 8 0 0 1 0 
1 8 5 26 -0 -0 -1 
1 8 1.9199999999999591 0 0 1 0 
1 3.4200000000000061 8 26 -0 -0 -1 
8 1.5707963267948966 3.1415926535897931
2 3.4200000000000061 9.5 1.5 0 0 1 0 1 -0 -1 0 0 1.5
1 5 8 26 -0 -0 -1 
8 4.7123889803846897 6.2831853071795862
2 5 5 1.5 0 0 1 0 1 -0 -1 0 0 3
1 8 8 0 -1 0 0 
2 4.9999999999999991 4.9999999999999991 0 0 0 1 -1 0 0 0 -1 0 3.5
2 4.9999999999999991 1.4999999999999991 1.5 -1 6.123233995736766e-17 0 -6.123233995736766e-17 -1 0 0 0 1 1.5
2 4.9999999999999991 59 0 -0 -0 -1 -1 0 0 0 1 -0 3.5
2 4.9999999999999991 62.5 1.5 1 6.123233995736766e-17 -0 -6.123233995736766e-17 1 0 0 0 1 1.5
1 0 1.4999999999999998 -2.2204460492503131e-16 1 0 0 
1 0 62.5 -2.2204460492503131e-16 1 0 0 
2 109.5 4.9999999999999991 0 -0 -0 -1 1 0 -0 0 -1 0 3.5
2 109.5 59 0 0 0 1 1 0 -0 -0 1 0 3.5
1 113 0 -2.2204460492503131e-16 0 1 0 
2 109.5 1.4999999999999991 1.5 -1 -6.123233995736766e-17 0 6.123233995736766e-17 -1 -0 0 0 1 1.5
2 109.5 62.5 1.5 1 -6.123233995736766e-17 0 6.123233995736766e-17 1 0 -0 0 1 1.5
2 113 4.9999999999999991 1.5 0 -1 0 1 0 0 -0 0 1 1.5
2 113 59 1.5 0 -1 0 1 0 0 -0 0 1 1.5
Polygon3D 0
PolygonOnTriangulations 0
Surfaces 51
1 0 0 0 1 0 -0 0 0 1 0 -1 0 
1 0 0 26 0 0 1 1 0 -0 -0 1 0 
2 4.9999999999999991 4.9999999999999991 0 0 0 1 -1 -0 0 0 -1 0 5
2 4.9999999999999991 59 0 0 0 1 -1 -0 0 -0 1 -0 5
2 1.4999999999999998 0 1.4999999999999998 0 1 0 -1 0 0 -0 0 -1 1.5
1 0 0 0 -0 1 0 0 0 1 1 0 -0 
1 0 64 0 -0 1 0 0 0 1 1 0 -0 
2 109.5 4.9999999999999991 0 0 0 1 0 -1 0 1 0 -0 5
2 109.5 59 0 0 0 1 0 1 0 1 -0 -0 5
1 114.5 0 0 1 0 -0 0 0 1 0 -1 0 
2 0 0 0 0 0 1 1 0 -0 -0 1 0 1.75
2 0 0 0 0 0 1 1 0 -0 -0 1 0 1.75
2 0 0 0 0 0 1 1 0 -0 -0 1 0 1.75
2 0 0 0 0 0 1 1 0 -0 -0 1 0 1.75
1 106.5 56 26 0 -1 0 1 0 0 -0 0 1 
2 109.5 59 26 -0 -0 -1 0 -1 0 -1 0 0 3
2 111.08 54.5 26 -0 -0 -1 0 1 -0 1 -0 0 1.5
1 106.5 62.080000000000041 26 -1 0 0 0 -1 0 0 0 1 
1 112.58 56 26 -1 0 0 0 -1 0 0 0 1 
2 105 60.580000000000041 26 -0 -0 -1 1 -0 0 0 1 -0 1.5
2 111.08 9.5 26 -0 -0 -1 1 -0 0 -0 -1 0 1.5
1 8 62.080000000000041 26 0 -1 0 1 0 0 -0 0 1 
1 112.58 8 26 0 1 -0 -1 0 0 0 0 1 
2 9.5 60.580000000000041 26 -0 -0 -1 0 1 -0 -1 0 -0 1.5
2 109.5 5 26 -0 -0 -1 0 1 -0 -1 0 -0 3
1 8 56 26 1 0 0 -0 1 0 0 -0 1 
1 106.5 8 26 -1 0 0 0 -1 0 0 0 1 
2 5 59 26 -0 -0 -1 1 0 0 0 -1 0 3
2 105.5 2.9199999999999591 26 -0 -0 -1 1 -0 0 -0 -1 0 1
1 1.9200000000000061 56 26 0 -1 0 1 0 0 -0 0 1 
1 106.5 1.9199999999999591 26 0 1 -0 -1 0 0 0 0 1 
2 3.4200000000000061 54.5 26 -0 -0 -1 0 1 -0 -1 0 -0 1.5
2 9.5 3.4199999999999591 26 -0 -0 -1 -0 -1 0 -1 0 0 1.5
1 1.9200000000000061 8 26 1 0 0 -0 1 0 0 -0 1 
1 8 1.9199999999999591 26 1 0 0 -0 1 0 0 -0 1 
2 3.4200000000000061 9.5 26 -0 -0 -1 -1 0 0 -0 -1 0 1.5
2 5 5 26 -0 -0 -1 1 0 0 -0 1 -0 3
1 8 8 26 0 1 -0 -1 0 0 0 0 1 
5 4.9999999999999991 4.9999999999999991 1.5 0 0 1 -1 0 0 0 -1 0 3.5 1.5
5 4.9999999999999991 59 1.5 0 0 1 -1 0 0 -0 1 -0 3.5 1.5
1 0 0 0 0 0 1 1 0 -0 -0 1 0 
2 0 1.4999999999999998 1.4999999999999998 1 0 0 0 -1 0 0 0 -1 1.5
2 0 62.5 1.4999999999999998 1 0 0 -0 1 0 -0 0 -1 1.5
5 109.5 4.9999999999999991 1.5 0 0 1 1 0 -0 0 -1 -0 3.5 1.5
5 109.5 59 1.5 0 0 1 1 0 -0 -0 1 0 3.5 1.5
2 113 0 1.4999999999999998 0 1 0 0 0 -1 1 -0 -0 1.5
1 0 0 0 0 0 1 1 0 -0 -0 1 0 
1 0 0 0 0 0 1 1 0 -0 -0 1 0 
1 0 0 0 0 0 1 1 0 -0 -0 1 0 
1 0 0 0 0 0 1 1 0 -0 -0 1 0 
1 1.9200000000000061 56 26 0 0 -1 -1 0 -0 0 1 0 
Triangulations 0

TShapes 314
Ve
1e-07
-8.88178419700125e-16 5 26
0 0

0101101
*
Ve
1e-07
-8.88178419700125e-16 59 26
0 0

0101101
*
Ed
 1e-07 1 1 0
1  1 0 5 59
2  1 1 0 5 59
2  2 2 0 5 59
0

0101000
+314 8 -313 8 *
Ve
1e-07
-8.88178419700125e-16 5 1.5
0 0

0101101
*
Ed
 1e-07 1 1 0
1  2 0 1.5 26
2  3 1 6 1.5 26
2  4 3 0 1.5 26
4 G1 1 6 3 0
0

0101000
+311 9 -314 9 *
Ve
1e-07
-8.88178419700125e-16 59 1.5
0 0

0101101
*
Ed
 1e-07 1 1 0
1  3 0 1.5 26
2  5 1 6 1.5 26
2  6 4 0 1.5 26
4 G1 1 6 4 0
0

0101000
+309 9 -313 9 *
Ed
 1e-07 1 1 0
1  4 0 5 59
2  7 1 6 5 59
2  8 5 0 5 59
4 G1 1 6 5 0
0

0101000
+311 9 -309 9 *
Wi

0101100
-312 6 -310 0 +308 0 +307 0 *
Fa
0  1e-07 1 0

0101000
+306 7 *
Ve
1e-07
5 -8.88178419700125e-16 26
0 0

0101101
*
Ed
 1e-07 1 1 0
1  5 0 4.71238898038469 6.28318530717959
2  9 2 6 4.71238898038469 6.28318530717959
2  10 3 0 4.71238898038469 6.28318530717959
0

0101000
+314 9 -304 9 *
Ve
1e-07
5 64 26
0 0

0101101
*
Ed
 1e-07 1 1 0
1  6 0 1.5707963267949 3.14159265358979
2  11 2 6 1.5707963267949 3.14159265358979
2  12 4 0 1.5707963267949 3.14159265358979
0

0101000
+313 9 -302 9 *
Ve
1e-07
109.5 -8.88178419700125e-16 26
0 0

0101101
*
Ed
 1e-07 1 1 0
1  7 0 5 109.5
2  13 2 0 5 109.5
2  14 6 0 5 109.5
0

0101000
+304 8 -300 8 *
Ve
1e-07
109.5 64 26
0 0

0101101
*
Ed
 1e-07 1 1 0
1  8 0 5 109.5
2  15 2 0 5 109.5
2  16 7 0 5 109.5
0

0101000
+302 8 -298 8 *
Ve
1e-07
114.5 5 26
0 0

0101101
*
Ed
 1e-07 1 1 0
1  9 0 0 1.5707963267949
2  17 2 6 0 1.5707963267949
2  18 8 0 0 1.5707963267949
0

0101000
+300 9 -296 9 *
Ve
1e-07
114.5 59 26
0 0

0101101
*
Ed
 1e-07 1 1 0
1  10 0 3.14159265358979 4.71238898038469
2  19 2 6 3.14159265358979 4.71238898038469
2  20 9 0 3.14159265358979 4.71238898038469
0

0101000
+298 9 -294 9 *
Ed
 1e-07 1 1 0
1  11 0 5 59
2  21 2 0 5 59
2  22 10 0 5 59
0

0101000
+296 8 -294 8 *
Wi

0101100
-312 6 +303 0 -301 0 +299 6 -297 6 +295 0 -293 0 +292 6 *
Ve
1e-07
111.25 5 26
0 0

0101101
*
Ed
 1e-07 1 1 0
1  12 0 0 6.28318530717959
2  23 2 16 0 6.28318530717959
2  24 11 0 0 6.28318530717959
0

0101100
+290 17 -290 17 *
Wi

0101100
-289 15 *
Ve
1e-07
6.75 5 26
0 0

0101101
*
Ed
 1e-07 1 1 0
1  13 0 0 6.28318530717959
2  25 2 19 0 6.28318530717959
2  26 12 0 0 6.28318530717959
0

0101100
+287 20 -287 20 *
Wi

0101100
-286 18 *
Ve
1e-07
6.75 59 26
0 0

0101101
*
Ed
 1e-07 1 1 0
1  14 0 0 6.28318530717959
2  27 2 23 0 6.28318530717959
2  28 13 0 0 6.28318530717959
0

0101100
+284 24 -284 24 *
Wi

0101100
-283 22 *
Ve
1e-07
111.25 59 26
0 0

0101101
*
Ed
 1e-07 1 1 0
1  15 0 0 6.28318530717959
2  29 2 27 0 6.28318530717959
2  30 14 0 0 6.28318530717959
0

0101100
+281 28 -281 28 *
Wi

0101100
-280 26 *
Ve
1e-07
109.5 56 26
0 0

0101101
*
Ve
1e-07
111.08 56 26
0 0

0101101
*
Ed
 1e-07 1 1 0
1  16 0 3 4.58
2  31 2 31 3 4.58
2  32 15 32 3 4.58
0

0101000
+278 33 -277 33 *
Ve
1e-07
106.5 59 26
0 0

0101101
*
Ed
 1e-07 1 1 0
1  17 0 3.14159265358979 4.71238898038469
2  33 2 6 3.14159265358979 4.71238898038469
2  34 16 0 3.14159265358979 4.71238898038469
0

0101000
+278 9 -275 9 *
Ve
1e-07
112.58 54.5 26
0 0

0101101
*
Ed
 1e-07 1 1 0
1  18 0 0 1.5707963267949
2  35 2 6 0 1.5707963267949
2  36 17 0 0 1.5707963267949
0

0101000
+277 9 -273 9 *
Ve
1e-07
106.5 60.58 26
0 0

0101101
*
Ed
 1e-07 1 1 0
1  19 0 1.5 3.08000000000004
2  37 2 31 1.5 3.08000000000004
2  38 18 32 1.5 3.08000000000004
0

0101000
+271 33 -275 33 *
Ve
1e-07
112.58 9.5 26
0 0

0101101
*
Ed
 1e-07 1 1 0
1  20 0 1.5 46.5
2  39 2 31 1.5 46.5
2  40 19 32 1.5 46.5
0

0101000
+273 33 -269 33 *
Ve
1e-07
105 62.08 26
0 0

0101101
*
Ed
 1e-07 1 1 0
1  21 0 4.71238898038469 6.28318530717959
2  41 2 6 4.71238898038469 6.28318530717959
2  42 20 0 4.71238898038469 6.28318530717959
0

0101000
+271 9 -267 9 *
Ve
1e-07
111.08 8 26
0 0

0101101
*
Ed
 1e-07 1 1 0
1  22 0 1.5707963267949 3.14159265358979
2  43 2 6 1.5707963267949 3.14159265358979
2  44 21 0 1.5707963267949 3.14159265358979
0

0101000
+269 9 -265 9 *
Ve
1e-07
9.5 62.08 26
0 0

0101101
*
Ed
 1e-07 1 1 0
1  23 0 1.5 97
2  45 2 31 1.5 97
2  46 22 32 1.5 97
0

0101000
+263 33 -267 33 *
Ve
1e-07
109.5 8 26
0 0

0101101
*
Ed
 1e-07 1 1 0
1  24 0 1.5 3.08
2  47 2 31 1.5 3.08
2  48 23 32 1.5 3.08
0

0101000
+265 33 -261 33 *
Ve
1e-07
8 60.58 26
0 0

0101101
*
Ed
 1e-07 1 1 0
1  25 0 0 1.5707963267949
2  49 2 6 0 1.5707963267949
2  50 24 0 0 1.5707963267949
0

0101000
+263 9 -259 9 *
Ve
1e-07
106.5 5 26
0 0

0101101
*
Ed
 1e-07 1 1 0
1  26 0 0 1.5707963267949
2  51 2 6 0 1.5707963267949
2  52 25 0 0 1.5707963267949
0

0101000
+261 9 -257 9 *
Ve
1e-07
8 59 26
0 0

0101101
*
Ed
 1e-07 1 1 0
1  27 0 3 4.58000000000004
2  53 2 31 3 4.58000000000004
2  54 26 32 3 4.58000000000004
0

0101000
+255 33 -259 33 *
Ve
1e-07
106.5 2.91999999999996 26
0 0

0101101
*
Ed
 1e-07 1 1 0
1  28 0 3 5.08000000000004
2  55 2 31 3 5.08000000000004
2  56 27 32 3 5.08000000000004
0

0101000
+257 33 -253 33 *
Ve
1e-07
5 56 26
0 0

0101101
*
Ed
 1e-07 1 1 0
1  29 0 1.5707963267949 3.14159265358979
2  57 2 6 1.5707963267949 3.14159265358979
2  58 28 0 1.5707963267949 3.14159265358979
0

0101000
+255 9 -251 9 *
Ve
1e-07
105.5 1.91999999999996 26
0 0

0101101
*
Ed
 1e-07 1 1 0
1  30 0 1.5707963267949 3.14159265358979
2  59 2 6 1.5707963267949 3.14159265358979
2  60 29 0 1.5707963267949 3.14159265358979
0

0101000
+253 9 -249 9 *
Ve
1e-07
3.42000000000001 56 26
0 0

0101101
*
Ed
 1e-07 1 1 0
1  31 0 1.5 3.07999999999999
2  61 2 31 1.5 3.07999999999999
2  62 30 32 1.5 3.07999999999999
0

0101000
+247 33 -251 33 *
Ve
1e-07
9.5 1.91999999999996 26
0 0

0101101
*
Ed
 1e-07 1 1 0
1  32 0 1 97
2  63 2 31 1 97
2  64 31 32 1 97
0

0101000
+249 33 -245 33 *
Ve
1e-07
1.92000000000001 54.5 26
0 0

0101101
*
Ed
 1e-07 1 1 0
1  33 0 0 1.5707963267949
2  65 2 6 0 1.5707963267949
2  66 32 0 0 1.5707963267949
0

0101000
+247 9 -243 9 *
Ve
1e-07
8 3.41999999999996 26
0 0

0101101
*
Ed
 1e-07 1 1 0
1  34 0 3.14159265358979 4.71238898038469
2  67 2 6 3.14159265358979 4.71238898038469
2  68 33 0 3.14159265358979 4.71238898038469
0

0101000
+245 9 -241 9 *
Ve
1e-07
1.92000000000001 9.5 26
0 0

0101101
*
Ed
 1e-07 1 1 0
1  35 0 1.5 46.5
2  69 2 31 1.5 46.5
2  70 34 32 1.5 46.5
0

0101000
+239 33 -243 33 *
Ve
1e-07
8 5 26
0 0

0101101
*
Ed
 1e-07 1 1 0
1  36 0 1.5 3.08000000000004
2  71 2 31 1.5 3.08000000000004
2  72 35 32 1.5 3.08000000000004
0

0101000
+241 33 -237 33 *
Ve
1e-07
3.42000000000001 8 26
0 0

0101101
*
Ed
 1e-07 1 1 0
1  37 0 1.5707963267949 3.14159265358979
2  73 2 6 1.5707963267949 3.14159265358979
2  74 36 0 1.5707963267949 3.14159265358979
0

0101000
+239 9 -235 9 *
Ve
1e-07
5 8 26
0 0

0101101
*
Ed
 1e-07 1 1 0
1  38 0 4.71238898038469 6.28318530717959
2  75 2 6 4.71238898038469 6.28318530717959
2  76 37 0 4.71238898038469 6.28318530717959
0

0101000
+237 9 -233 9 *
Ed
 1e-07 1 1 0
1  39 0 3 4.57999999999999
2  77 2 31 3 4.57999999999999
2  78 38 32 3 4.57999999999999
0

0101000
+233 33 -235 33 *
Wi

0101100
+276 30 -274 0 +272 0 +270 30 +268 30 -266 0 +264 0 +262 30 +260 30 -258 0 
+256 0 +254 30 +252 30 -250 0 +248 0 +246 30 +244 30 -242 0 +240 0 +238 30 
+236 30 -234 0 +232 0 +231 30 *
Fa
0  1e-07 2 10

0101000
+291 11 +288 0 +285 0 +282 0 +279 0 +230 11 *
Ve
1e-07
5 -8.88178419700125e-16 1.5
0 0

0101101
*
Ed
 1e-07 1 1 0
1  40 0 0 1.5707963267949
2  79 3 0 0 1.5707963267949
2  80 39 0 0 1.5707963267949
4 G1 3 0 39 0
0

0101000
+311 9 -228 9 *
Ed
 1e-07 1 1 0
1  41 0 1.5 26
2  81 3 0 1.5 26
2  82 6 6 1.5 26
4 G1 3 0 6 6
0

0101000
+228 9 -304 9 *
Wi

0101100
-310 0 +227 0 -303 0 +226 0 *
Fa
0  1e-07 3 0

0101000
+225 0 *
Ve
1e-07
5 64 1.5
0 0

0101101
*
Ed
 1e-07 1 1 0
1  42 0 0 1.5707963267949
2  83 4 0 0 1.5707963267949
2  84 40 0 0 1.5707963267949
4 G1 4 0 40 0
0

0101000
+309 9 -223 9 *
Ed
 1e-07 1 1 0
1  43 0 1.5 26
2  85 4 0 1.5 26
2  86 7 6 1.5 26
4 G1 4 0 7 6
0

0101000
+223 9 -302 9 *
Wi

0101100
-308 0 +222 0 -301 0 +221 0 *
Fa
0  1e-07 4 0

0101000
+220 0 *
Ve
1e-07
1.5 5 0
0 0

0101101
*
Ed
 1e-07 1 1 0
1  44 0 4.71238898038469 6.28318530717959
2  87 5 0 4.71238898038469 6.28318530717959
2  88 39 0 4.71238898038469 6.28318530717959
4 G1 5 0 39 0
0

0101000
+218 9 -311 9 *
Ve
1e-07
1.5 59 0
0 0

0101101
*
Ed
 1e-07 1 1 0
1  45 0 5 59
2  89 5 0 5 59
2  90 41 6 5 59
4 G1 5 0 41 6
0

0101000
+218 9 -216 9 *
Ed
 1e-07 1 1 0
1  46 0 4.71238898038469 6.28318530717959
2  91 5 0 4.71238898038469 6.28318530717959
2  92 40 0 4.71238898038469 6.28318530717959
4 G1 5 0 40 0
0

0101000
+216 9 -309 9 *
Wi

0101100
-217 0 +215 0 -307 0 +214 0 *
Fa
0  1e-07 5 0

0101000
+213 0 *
Ve
1e-07
109.5 -8.88178419700125e-16 1.5
0 0

0101101
*
Ed
 1e-07 1 1 0
1  47 0 1.5 26
2  93 6 6 1.5 26
2  94 8 0 1.5 26
4 G1 6 6 8 0
0

0101000
+211 9 -300 9 *
Ed
 1e-07 1 1 0
1  48 0 5 109.5
2  95 6 6 5 109.5
2  96 42 0 5 109.5
4 G1 6 6 42 0
0

0101000
+228 9 -211 9 *
Wi

0101100
+299 6 +226 0 -210 0 -209 0 *
Fa
0  1e-07 6 0

0101000
+208 7 *
Ve
1e-07
109.5 64 1.5
0 0

0101101
*
Ed
 1e-07 1 1 0
1  49 0 1.5 26
2  97 7 6 1.5 26
2  98 9 0 1.5 26
4 G1 7 6 9 0
0

0101000
+206 9 -298 9 *
Ed
 1e-07 1 1 0
1  50 0 5 109.5
2  99 7 6 5 109.5
2  100 43 0 5 109.5
4 G1 7 6 43 0
0

0101000
+223 9 -206 9 *
Wi

0101100
+297 6 +221 0 -205 0 -204 0 *
Fa
0  1e-07 7 0

0101000
+203 7 *
Ve
1e-07
114.5 5 1.5
0 0

0101101
*
Ed
 1e-07 1 1 0
1  51 0 0 1.5707963267949
2  101 8 0 0 1.5707963267949
2  102 44 0 0 1.5707963267949
4 G1 8 0 44 0
0

0101000
+201 9 -211 9 *
Ed
 1e-07 1 1 0
1  52 0 1.5 26
2  103 8 0 1.5 26
2  104 10 6 1.5 26
4 G1 8 0 10 6
0

0101000
+201 9 -296 9 *
Wi

0101100
-210 0 -200 0 -295 0 +199 0 *
Fa
0  1e-07 8 0

0101000
+198 0 *
Ve
1e-07
114.5 59 1.5
0 0

0101101
*
Ed
 1e-07 1 1 0
1  53 0 0 1.5707963267949
2  105 9 0 0 1.5707963267949
2  106 45 0 0 1.5707963267949
4 G1 9 0 45 0
0

0101000
+196 9 -206 9 *
Ed
 1e-07 1 1 0
1  54 0 1.5 26
2  107 9 0 1.5 26
2  108 10 6 1.5 26
4 G1 9 0 10 6
0

0101000
+196 9 -294 9 *
Wi

0101100
-205 0 -195 0 -293 0 +194 0 *
Fa
0  1e-07 9 0

0101000
+193 0 *
Ed
 1e-07 1 1 0
1  55 0 5 59
2  109 10 6 5 59
2  110 46 0 5 59
4 G1 10 6 46 0
0

0101000
+201 9 -196 9 *
Wi

0101100
-292 6 -199 0 +194 0 +191 0 *
Fa
0  1e-07 10 0

0101000
+190 7 *
Ve
1e-07
111.25 5 20
0 0

0101101
*
Ed
 1e-07 1 1 0
1  56 0 0 6
3  111 112CN 11 0 0 6
0

0101000
-290 17 +188 17 *
Ed
 1e-07 1 1 0
1  57 0 0 6.28318530717959
2  113 11 0 0 6.28318530717959
2  114 47 0 0 6.28318530717959
0

0101100
+188 17 -188 17 *
Wi

0101000
+187 15 +186 15 -187 15 -289 15 *
Fa
0  1e-07 11 15

0101000
+185 0 *
Ve
1e-07
6.75 5 20
0 0

0101101
*
Ed
 1e-07 1 1 0
1  58 0 0 6
3  115 116CN 12 0 0 6
0

0101000
-287 20 +183 20 *
Ed
 1e-07 1 1 0
1  59 0 0 6.28318530717959
2  117 12 0 0 6.28318530717959
2  118 48 0 0 6.28318530717959
0

0101100
+183 20 -183 20 *
Wi

0101000
+182 18 +181 18 -182 18 -286 18 *
Fa
0  1e-07 12 18

0101000
+180 0 *
Ve
1e-07
6.75 59 20
0 0

0101101
*
Ed
 1e-07 1 1 0
1  60 0 0 6
3  119 120CN 13 0 0 6
0

0101000
-284 24 +178 24 *
Ed
 1e-07 1 1 0
1  61 0 0 6.28318530717959
2  121 13 0 0 6.28318530717959
2  122 49 0 0 6.28318530717959
0

0101100
+178 24 -178 24 *
Wi

0101000
+177 22 +176 22 -177 22 -283 22 *
Fa
0  1e-07 13 22

0101000
+175 0 *
Ve
1e-07
111.25 59 20
0 0

0101101
*
Ed
 1e-07 1 1 0
1  62 0 0 6
3  123 124CN 14 0 0 6
0

0101000
-281 28 +173 28 *
Ed
 1e-07 1 1 0
1  63 0 0 6.28318530717959
2  125 14 0 0 6.28318530717959
2  126 50 0 0 6.28318530717959
0

0101100
+173 28 -173 28 *
Wi

0101000
+172 26 +171 26 -172 26 -280 26 *
Fa
0  1e-07 14 26

0101000
+170 0 *
Ve
1e-07
109.5 56 1.5
0 0

0101101
*
Ed
 1e-07 1 1 0
1  64 0 -0 24.5
2  127 15 34 -0 24.5
2  128 16 0 -0 24.5
4 G1 15 34 16 0
0

0101000
+278 9 -168 9 *
Ve
1e-07
111.08 56 1.5
0 0

0101101
*
Ed
 1e-07 1 1 0
1  65 0 -0 24.5
2  129 15 34 -0 24.5
2  130 17 0 -0 24.5
4 G1 15 34 17 0
0

0101000
+277 9 -166 9 *
Ed
 1e-07 1 1 0
1  66 0 3 4.58
2  131 15 38 3 4.58
2  132 51 39 3 4.58
0

0101000
+168 40 -166 40 *
Wi

0101100
-276 30 +167 0 -165 0 +164 37 *
Fa
0  1e-07 15 0

0101000
+163 35 *
Ve
1e-07
106.5 59 1.5
0 0

0101101
*
Ed
 1e-07 1 1 0
1  67 0 -0 24.5
2  133 16 0 -0 24.5
2  134 18 34 -0 24.5
4 G1 16 0 18 34
0

0101000
+275 9 -161 9 *
Ed
 1e-07 1 1 0
1  68 0 3.14159265358979 4.71238898038469
2  135 16 0 3.14159265358979 4.71238898038469
2  136 51 41 3.14159265358979 4.71238898038469
0

0101000
+168 9 -161 9 *
Wi

0101100
+274 0 -167 0 +160 0 -159 0 *
Fa
0  1e-07 16 0

0101000
+158 0 *
Ve
1e-07
112.58 54.5 1.5
0 0

0101101
*
Ed
 1e-07 1 1 0
1  69 0 -0 24.5
2  137 17 0 -0 24.5
2  138 19 34 -0 24.5
4 G1 17 0 19 34
0

0101000
+273 9 -156 9 *
Ed
 1e-07 1 1 0
1  70 0 0 1.5707963267949
2  139 17 0 0 1.5707963267949
2  140 51 41 0 1.5707963267949
0

0101000
+166 9 -156 9 *
Wi

0101100
+272 0 -165 0 +155 0 -154 0 *
Fa
0  1e-07 17 0

0101000
+153 0 *
Ve
1e-07
106.5 60.58 1.5
0 0

0101101
*
Ed
 1e-07 1 1 0
1  71 0 -0 24.5
2  141 18 34 -0 24.5
2  142 20 0 -0 24.5
4 G1 18 34 20 0
0

0101000
+271 9 -151 9 *
Ed
 1e-07 1 1 0
1  72 0 1.5 3.08000000000004
2  143 18 38 1.5 3.08000000000004
2  144 51 39 1.5 3.08000000000004
0

0101000
+151 40 -161 40 *
Wi

0101100
-270 30 +150 0 -160 0 +149 37 *
Fa
0  1e-07 18 0

0101000
+148 35 *
Ve
1e-07
112.58 9.5 1.5
0 0

0101101
*
Ed
 1e-07 1 1 0
1  73 0 -0 24.5
2  145 19 34 -0 24.5
2  146 21 0 -0 24.5
4 G1 19 34 21 0
0

0101000
+269 9 -146 9 *
Ed
 1e-07 1 1 0
1  74 0 1.5 46.5
2  147 19 38 1.5 46.5
2  148 51 39 1.5 46.5
0

0101000
+156 40 -146 40 *
Wi

0101100
-268 30 +155 0 -145 0 +144 37 *
Fa
0  1e-07 19 0

0101000
+143 35 *
Ve
1e-07
105 62.08 1.5
0 0

0101101
*
Ed
 1e-07 1 1 0
1  75 0 -0 24.5
2  149 20 0 -0 24.5
2  150 22 34 -0 24.5
4 G1 20 0 22 34
0

0101000
+267 9 -141 9 *
Ed
 1e-07 1 1 0
1  76 0 4.71238898038469 6.28318530717959
2  151 20 0 4.71238898038469 6.28318530717959
2  152 51 41 4.71238898038469 6.28318530717959
0

0101000
+151 9 -141 9 *
Wi

0101100
+266 0 -150 0 +140 0 -139 0 *
Fa
0  1e-07 20 0

0101000
+138 0 *
Ve
1e-07
111.08 8 1.5
0 0

0101101
*
Ed
 1e-07 1 1 0
1  77 0 -0 24.5
2  153 21 0 -0 24.5
2  154 23 34 -0 24.5
4 G1 21 0 23 34
0

0101000
+265 9 -136 9 *
Ed
 1e-07 1 1 0
1  78 0 1.5707963267949 3.14159265358979
2  155 21 0 1.5707963267949 3.14159265358979
2  156 51 41 1.5707963267949 3.14159265358979
0

0101000
+146 9 -136 9 *
Wi

0101100
+264 0 -145 0 +135 0 -134 0 *
Fa
0  1e-07 21 0

0101000
+133 0 *
Ve
1e-07
9.5 62.08 1.5
0 0

0101101
*
Ed
 1e-07 1 1 0
1  79 0 -0 24.5
2  157 22 34 -0 24.5
2  158 24 0 -0 24.5
4 G1 22 34 24 0
0

0101000
+263 9 -131 9 *
Ed
 1e-07 1 1 0
1  80 0 1.5 97
2  159 22 38 1.5 97
2  160 51 39 1.5 97
0

0101000
+131 40 -141 40 *
Wi

0101100
-262 30 +130 0 -140 0 +129 37 *
Fa
0  1e-07 22 0

0101000
+128 35 *
Ve
1e-07
109.5 8 1.5
0 0

0101101
*
Ed
 1e-07 1 1 0
1  81 0 -0 24.5
2  161 23 34 -0 24.5
2  162 25 0 -0 24.5
4 G1 23 34 25 0
0

0101000
+261 9 -126 9 *
Ed
 1e-07 1 1 0
1  82 0 1.5 3.08
2  163 23 38 1.5 3.08
2  164 51 39 1.5 3.08
0

0101000
+136 40 -126 40 *
Wi

0101100
-260 30 +135 0 -125 0 +124 37 *
Fa
0  1e-07 23 0

0101000
+123 35 *
Ve
1e-07
8 60.58 1.5
0 0

0101101
*
Ed
 1e-07 1 1 0
1  83 0 -0 24.5
2  165 24 0 -0 24.5
2  166 26 34 -0 24.5
4 G1 24 0 26 34
0

0101000
+259 9 -121 9 *
Ed
 1e-07 1 1 0
1  84 0 0 1.5707963267949
2  167 24 0 0 1.5707963267949
2  168 51 41 0 1.5707963267949
0

0101000
+131 9 -121 9 *
Wi

0101100
+258 0 -130 0 +120 0 -119 0 *
Fa
0  1e-07 24 0

0101000
+118 0 *
Ve
1e-07
106.5 5 1.5
0 0

0101101
*
Ed
 1e-07 1 1 0
1  85 0 -0 24.5
2  169 25 0 -0 24.5
2  170 27 34 -0 24.5
4 G1 25 0 27 34
0

0101000
+257 9 -116 9 *
Ed
 1e-07 1 1 0
1  86 0 0 1.5707963267949
2  171 25 0 0 1.5707963267949
2  172 51 41 0 1.5707963267949
0

0101000
+126 9 -116 9 *
Wi

0101100
+256 0 -125 0 +115 0 -114 0 *
Fa
0  1e-07 25 0

0101000
+113 0 *
Ve
1e-07
8 59 1.5
0 0

0101101
*
Ed
 1e-07 1 1 0
1  87 0 -0 24.5
2  173 26 34 -0 24.5
2  174 28 0 -0 24.5
4 G1 26 34 28 0
0

0101000
+255 9 -111 9 *
Ed
 1e-07 1 1 0
1  88 0 3 4.58000000000004
2  175 26 38 3 4.58000000000004
2  176 51 39 3 4.58000000000004
0

0101000
+111 40 -121 40 *
Wi

0101100
-254 30 +110 0 -120 0 +109 37 *
Fa
0  1e-07 26 0

0101000
+108 35 *
Ve
1e-07
106.5 2.91999999999996 1.5
0 0

0101101
*
Ed
 1e-07 1 1 0
1  89 0 -0 24.5
2  177 27 34 -0 24.5
2  178 29 0 -0 24.5
4 G1 27 34 29 0
0

0101000
+253 9 -106 9 *
Ed
 1e-07 1 1 0
1  90 0 3 5.08000000000004
2  179 27 38 3 5.08000000000004
2  180 51 39 3 5.08000000000004
0

0101000
+116 40 -106 40 *
Wi

0101100
-252 30 +115 0 -105 0 +104 37 *
Fa
0  1e-07 27 0

0101000
+103 35 *
Ve
1e-07
5 56 1.5
0 0

0101101
*
Ed
 1e-07 1 1 0
1  91 0 -0 24.5
2  181 28 0 -0 24.5
2  182 30 34 -0 24.5
4 G1 28 0 30 34
0

0101000
+251 9 -101 9 *
Ed
 1e-07 1 1 0
1  92 0 1.5707963267949 3.14159265358979
2  183 28 0 1.5707963267949 3.14159265358979
2  184 51 41 1.5707963267949 3.14159265358979
0

0101000
+111 9 -101 9 *
Wi

0101100
+250 0 -110 0 +100 0 -99 0 *
Fa
0  1e-07 28 0

0101000
+98 0 *
Ve
1e-07
105.5 1.91999999999996 1.5
0 0

0101101
*
Ed
 1e-07 1 1 0
1  93 0 -0 24.5
2  185 29 0 -0 24.5
2  186 31 34 -0 24.5
4 G1 29 0 31 34
0

0101000
+249 9 -96 9 *
Ed
 1e-07 1 1 0
1  94 0 1.5707963267949 3.14159265358979
2  187 29 0 1.5707963267949 3.14159265358979
2  188 51 41 1.5707963267949 3.14159265358979
0

0101000
+106 9 -96 9 *
Wi

0101100
+248 0 -105 0 +95 0 -94 0 *
Fa
0  1e-07 29 0

0101000
+93 0 *
Ve
1e-07
3.42000000000001 56 1.5
0 0

0101101
*
Ed
 1e-07 1 1 0
1  95 0 -0 24.5
2  189 30 34 -0 24.5
2  190 32 0 -0 24.5
4 G1 30 34 32 0
0

0101000
+247 9 -91 9 *
Ed
 1e-07 1 1 0
1  96 0 1.5 3.07999999999999
2  191 30 38 1.5 3.07999999999999
2  192 51 39 1.5 3.07999999999999
0

0101000
+91 40 -101 40 *
Wi

0101100
-246 30 +90 0 -100 0 +89 37 *
Fa
0  1e-07 30 0

0101000
+88 35 *
Ve
1e-07
9.5 1.91999999999996 1.5
0 0

0101101
*
Ed
 1e-07 1 1 0
1  97 0 -0 24.5
2  193 31 34 -0 24.5
2  194 33 0 -0 24.5
4 G1 31 34 33 0
0

0101000
+245 9 -86 9 *
Ed
 1e-07 1 1 0
1  98 0 1 97
2  195 31 38 1 97
2  196 51 39 1 97
0

0101000
+96 40 -86 40 *
Wi

0101100
-244 30 +95 0 -85 0 +84 37 *
Fa
0  1e-07 31 0

0101000
+83 35 *
Ve
1e-07
1.92000000000001 54.5 1.5
0 0

0101101
*
Ed
 1e-07 1 1 0
1  99 0 -0 24.5
2  197 32 0 -0 24.5
2  198 34 34 -0 24.5
4 G1 32 0 34 34
0

0101000
+243 9 -81 9 *
Ed
 1e-07 1 1 0
1  100 0 0 1.5707963267949
2  199 32 0 0 1.5707963267949
2  200 51 41 0 1.5707963267949
0

0101000
+91 9 -81 9 *
Wi

0101100
+242 0 -90 0 +80 0 -79 0 *
Fa
0  1e-07 32 0

0101000
+78 0 *
Ve
1e-07
8 3.41999999999996 1.5
0 0

0101101
*
Ed
 1e-07 1 1 0
1  101 0 -0 24.5
2  201 33 0 -0 24.5
2  202 35 34 -0 24.5
4 G1 33 0 35 34
0

0101000
+241 9 -76 9 *
Ed
 1e-07 1 1 0
1  102 0 3.14159265358979 4.71238898038469
2  203 33 0 3.14159265358979 4.71238898038469
2  204 51 41 3.14159265358979 4.71238898038469
0

0101000
+86 9 -76 9 *
Wi

0101100
+240 0 -85 0 +75 0 -74 0 *
Fa
0  1e-07 33 0

0101000
+73 0 *
Ve
1e-07
1.92000000000001 9.5 1.5
0 0

0101101
*
Ed
 1e-07 1 1 0
1  103 0 -0 24.5
2  205 34 34 -0 24.5
2  206 36 0 -0 24.5
4 G1 34 34 36 0
0

0101000
+239 9 -71 9 *
Ed
 1e-07 1 1 0
1  104 0 1.5 46.5
2  207 34 38 1.5 46.5
2  208 51 39 1.5 46.5
0

0101000
+71 40 -81 40 *
Wi

0101100
-238 30 +70 0 -80 0 +69 37 *
Fa
0  1e-07 34 0

0101000
+68 35 *
Ve
1e-07
8 5 1.5
0 0

0101101
*
Ed
 1e-07 1 1 0
1  105 0 -0 24.5
2  209 35 34 -0 24.5
2  210 37 0 -0 24.5
4 G1 35 34 37 0
0

0101000
+237 9 -66 9 *
Ed
 1e-07 1 1 0
1  106 0 1.5 3.08000000000004
2  211 35 38 1.5 3.08000000000004
2  212 51 39 1.5 3.08000000000004
0

0101000
+76 40 -66 40 *
Wi

0101100
-236 30 +75 0 -65 0 +64 37 *
Fa
0  1e-07 35 0

0101000
+63 35 *
Ve
1e-07
3.42000000000001 8 1.5
0 0

0101101
*
Ed
 1e-07 1 1 0
1  107 0 -0 24.5
2  213 36 0 -0 24.5
2  214 38 34 -0 24.5
4 G1 36 0 38 34
0

0101000
+235 9 -61 9 *
Ed
 1e-07 1 1 0
1  108 0 1.5707963267949 3.14159265358979
2  215 36 0 1.5707963267949 3.14159265358979
2  216 51 41 1.5707963267949 3.14159265358979
0

0101000
+71 9 -61 9 *
Wi

0101100
+234 0 -70 0 +60 0 -59 0 *
Fa
0  1e-07 36 0

0101000
+58 0 *
Ve
1e-07
5 8 1.5
0 0

0101101
*
Ed
 1e-07 1 1 0
1  109 0 -0 24.5
2  217 37 0 -0 24.5
2  218 38 34 -0 24.5
4 G1 37 0 38 34
0

0101000
+233 9 -56 9 *
Ed
 1e-07 1 1 0
1  110 0 4.71238898038469 6.28318530717959
2  219 37 0 4.71238898038469 6.28318530717959
2  220 51 41 4.71238898038469 6.28318530717959
0

0101000
+66 9 -56 9 *
Wi

0101100
+232 0 -65 0 +55 0 -54 0 *
Fa
0  1e-07 37 0

0101000
+53 0 *
Ed
 1e-07 1 1 0
1  111 0 3 4.57999999999999
2  221 38 38 3 4.57999999999999
2  222 51 39 3 4.57999999999999
0

0101000
+56 40 -61 40 *
Wi

0101100
-231 30 +55 0 -60 0 +51 37 *
Fa
0  1e-07 38 0

0101000
+50 35 *
Ve
1e-07
5 1.5 0
0 0

0101101
*
Ed
 1e-07 1 1 0
1  112 0 0 1.5707963267949
2  223 39 0 0 1.5707963267949
2  224 41 6 0 1.5707963267949
4 G1 39 0 41 6
0

0101000
+218 9 -48 9 *
Ed
 1e-07 1 1 0
1  113 0 4.71238898038469 6.28318530717959
2  225 39 0 4.71238898038469 6.28318530717959
2  226 42 0 4.71238898038469 6.28318530717959
4 G1 39 0 42 0
0

0101000
+48 9 -228 9 *
Wi

0101100
-217 0 +47 0 -227 0 +46 0 *
Fa
0  1e-07 39 0

0101000
+45 0 *
Ve
1e-07
5 62.5 0
0 0

0101101
*
Ed
 1e-07 1 1 0
1  114 0 0 1.5707963267949
2  227 40 0 0 1.5707963267949
2  228 41 6 0 1.5707963267949
4 G1 40 0 41 6
0

0101000
+216 9 -43 9 *
Ed
 1e-07 1 1 0
1  115 0 4.71238898038469 6.28318530717959
2  229 40 0 4.71238898038469 6.28318530717959
2  230 43 0 4.71238898038469 6.28318530717959
4 G1 40 0 43 0
0

0101000
+43 9 -223 9 *
Wi

0101100
-214 0 +42 0 -222 0 +41 0 *
Fa
0  1e-07 40 0

0101000
+40 0 *
Ve
1e-07
109.5 1.5 0
0 0

0101101
*
Ed
 1e-07 1 1 0
1  116 0 5 109.5
2  231 41 6 5 109.5
2  232 42 0 5 109.5
4 G1 41 6 42 0
0

0101000
+48 9 -38 9 *
Ve
1e-07
109.5 62.5 0
0 0

0101101
*
Ed
 1e-07 1 1 0
1  117 0 5 109.5
2  233 41 6 5 109.5
2  234 43 0 5 109.5
4 G1 41 6 43 0
0

0101000
+43 9 -36 9 *
Ve
1e-07
113 5 0
0 0

0101101
*
Ed
 1e-07 1 1 0
1  118 0 0 1.5707963267949
2  235 41 6 0 1.5707963267949
2  236 44 0 0 1.5707963267949
4 G1 41 6 44 0
0

0101000
+34 9 -38 9 *
Ve
1e-07
113 59 0
0 0

0101101
*
Ed
 1e-07 1 1 0
1  119 0 0 1.5707963267949
2  237 41 6 0 1.5707963267949
2  238 45 0 0 1.5707963267949
4 G1 41 6 45 0
0

0101000
+32 9 -36 9 *
Ed
 1e-07 1 1 0
1  120 0 5 59
2  239 41 6 5 59
2  240 46 0 5 59
4 G1 41 6 46 0
0

0101000
+34 9 -32 9 *
Wi

0101100
-215 0 +47 0 -42 0 +37 0 -35 0 -33 0 +31 0 +30 0 *
Fa
0  1e-07 41 0

0101000
+29 7 *
Ed
 1e-07 1 1 0
1  121 0 4.71238898038469 6.28318530717959
2  241 42 0 4.71238898038469 6.28318530717959
2  242 44 0 4.71238898038469 6.28318530717959
4 G1 42 0 44 0
0

0101000
+38 9 -211 9 *
Wi

0101100
-46 0 +37 0 -209 0 +27 0 *
Fa
0  1e-07 42 0

0101000
+26 0 *
Ed
 1e-07 1 1 0
1  122 0 4.71238898038469 6.28318530717959
2  243 43 0 4.71238898038469 6.28318530717959
2  244 45 0 4.71238898038469 6.28318530717959
4 G1 43 0 45 0
0

0101000
+36 9 -206 9 *
Wi

0101100
-41 0 +35 0 -204 0 +24 0 *
Fa
0  1e-07 43 0

0101000
+23 0 *
Ed
 1e-07 1 1 0
1  123 0 4.71238898038469 6.28318530717959
2  245 44 0 4.71238898038469 6.28318530717959
2  246 46 0 4.71238898038469 6.28318530717959
4 G1 44 0 46 0
0

0101000
+34 9 -201 9 *
Wi

0101100
-21 0 +33 0 -200 0 +27 0 *
Fa
0  1e-07 44 0

0101000
+20 0 *
Ed
 1e-07 1 1 0
1  124 0 4.71238898038469 6.28318530717959
2  247 45 0 4.71238898038469 6.28318530717959
2  248 46 0 4.71238898038469 6.28318530717959
4 G1 45 0 46 0
0

0101000
+32 9 -196 9 *
Wi

0101100
-18 0 +31 0 -195 0 +24 0 *
Fa
0  1e-07 45 0

0101000
+17 0 *
Wi

0101100
+21 0 -30 0 +191 0 -18 0 *
Fa
0  1e-07 46 0

0101000
+15 0 *
Wi

0101000
-186 0 *
Fa
0  1e-07 47 0

0101000
-13 0 *
Wi

0101000
-181 0 *
Fa
0  1e-07 48 0

0101000
-11 0 *
Wi

0101000
-176 0 *
Fa
0  1e-07 49 0

0101000
-9 0 *
Wi

0101000
-171 0 *
Fa
0  1e-07 50 0

0101000
-7 0 *
Wi

0101100
+89 37 -79 0 -99 0 +69 37 +109 37 -59 0 -119 0 +51 37 +129 37 +54 0 
-139 0 +64 37 +149 37 +74 0 -159 0 +84 37 +164 37 +94 0 +154 0 +104 37 
+144 37 +114 0 +134 0 +124 37 *
Fa
0  1e-07 51 0

0101000
+5 46 *
Sh

0101100
-305 6 +229 5 +224 0 -219 0 -212 0 -207 6 +202 6 +197 0 -192 0 +189 6 
-184 5 -179 5 -174 5 -169 5 +162 34 +157 0 -152 0 +147 34 +142 34 +137 0 
-132 0 +127 34 +122 34 +117 0 -112 0 +107 34 +102 34 +97 0 -92 0 +87 34 
+82 34 +77 0 -72 0 +67 34 +62 34 +57 0 -52 0 +49 34 +44 0 -39 0 
-28 6 +25 0 -22 0 -19 0 +16 0 -14 0 +12 42 +10 43 +8 44 +6 45 
-4 41 *
So

0100000
+3 0 *
Co

1100000
+2 0 *

+1 1 